<svg width="13" height="14" viewBox="0 0 13 14" fill="none" xmlns="http://www.w3.org/2000/svg">
<g clip-path="url(#clip0_1675_18982)">
<path d="M11.1748 10.2671C10.0961 10.2605 9.03856 9.9672 8.11063 9.41716C7.18269 8.86712 6.41774 8.08019 5.89419 7.13705C5.37065 6.19392 5.10735 5.12851 5.13131 4.05007C5.15526 2.97163 5.46559 1.91896 6.03049 1C4.54216 1.26128 3.20438 2.06725 2.27776 3.26089C1.35114 4.45453 0.90203 5.95037 1.01793 7.45701C1.13382 8.96365 1.80642 10.3732 2.9047 11.4111C4.00297 12.449 5.44828 13.0408 6.95906 13.0714C7.99268 13.0741 9.00944 12.8096 9.91075 12.3036C10.8121 11.7976 11.5673 11.0674 12.1033 10.1836C11.7963 10.2343 11.4859 10.2622 11.1748 10.2671Z" fill="#222A3F" stroke="white" stroke-width="0.5" stroke-linecap="round" stroke-linejoin="round"/>
</g>
<defs>
<clipPath id="clip0_1675_18982">
<rect width="13" height="14" fill="white"/>
</clipPath>
</defs>
</svg>