<svg width="24" height="16" viewBox="0 0 24 16" fill="none" xmlns="http://www.w3.org/2000/svg">
<path d="M2.49998 0H21.5C22.8807 0 24 1.11928 24 2.49998V13.5C24 14.8807 22.8807 16 21.5 16H2.49998C1.11928 16 0 14.8807 0 13.5V2.50003C0 1.11928 1.11928 0 2.49998 0Z" fill="#9DC4EF"/>
<path d="M0 3H24V6.99998H0V3Z" fill="#5A5A5A"/>
<path d="M7.5 11H3.50002C3.22388 11 3 10.7762 3 10.5C3 10.2239 3.22388 10 3.50002 10H7.5C7.77614 10 8.00002 10.2239 8.00002 10.5C8.00002 10.7762 7.77614 11 7.5 11ZM10.5 13H3.50002C3.22388 13 3 12.7762 3 12.5C3 12.2239 3.22388 12 3.50002 12H10.5C10.7761 12 11 12.2239 11 12.5C11 12.7762 10.7761 13 10.5 13Z" fill="#FAFAFA"/>
</svg>
