<svg width="51" height="45" viewBox="0 0 51 45" fill="none" xmlns="http://www.w3.org/2000/svg">
<rect width="51" height="45" fill="url(#paint0_linear_91_645)" fill-opacity="0.3"/>
<g filter="url(#filter0_d_91_645)">
<path d="M42.5251 9.22507C41.898 8.59579 41.1529 8.09649 40.3324 7.7558C39.5119 7.41512 38.6323 7.23975 37.7439 7.23975C36.8555 7.23975 35.9758 7.41512 35.1553 7.7558C34.3349 8.09649 33.5897 8.59579 32.9626 9.22507L32.0001 10.2001L31.0376 9.22507C30.4105 8.59579 29.6654 8.09649 28.8449 7.7558C28.0244 7.41512 27.1448 7.23975 26.2564 7.23975C25.368 7.23975 24.4883 7.41512 23.6678 7.7558C22.8474 8.09649 22.1022 8.59579 21.4751 9.22507C18.8251 11.8751 18.6626 16.3501 22.0001 19.7501L32.0001 29.7501L42.0001 19.7501C45.3376 16.3501 45.1751 11.8751 42.5251 9.22507Z" fill="url(#paint1_linear_91_645)"/>
<path d="M42.5251 9.22507C41.898 8.59579 41.1529 8.09649 40.3324 7.7558C39.5119 7.41512 38.6323 7.23975 37.7439 7.23975C36.8555 7.23975 35.9758 7.41512 35.1553 7.7558C34.3349 8.09649 33.5897 8.59579 32.9626 9.22507L32.0001 10.2001L31.0376 9.22507C30.4105 8.59579 29.6654 8.09649 28.8449 7.7558C28.0244 7.41512 27.1448 7.23975 26.2564 7.23975C25.368 7.23975 24.4883 7.41512 23.6678 7.7558C22.8474 8.09649 22.1022 8.59579 21.4751 9.22507C18.8251 11.8751 18.6626 16.3501 22.0001 19.7501L32.0001 29.7501L42.0001 19.7501C45.3376 16.3501 45.1751 11.8751 42.5251 9.22507Z" fill="url(#paint2_linear_91_645)" fill-opacity="0.3"/>
</g>
<g opacity="0.8" filter="url(#filter1_bdd_91_645)">
<path d="M30.0349 13.9853C29.4078 13.356 28.6626 12.8567 27.8422 12.5161C27.0217 12.1754 26.142 12 25.2536 12C24.3652 12 23.4856 12.1754 22.6651 12.5161C21.8446 12.8567 21.0995 13.356 20.4724 13.9853L19.5099 14.9603L18.5474 13.9853C17.9203 13.356 17.1751 12.8567 16.3547 12.5161C15.5342 12.1754 14.6545 12 13.7661 12C12.8777 12 11.9981 12.1754 11.1776 12.5161C10.3571 12.8567 9.61197 13.356 8.98487 13.9853C6.33487 16.6353 6.17237 21.1103 9.50987 24.5103L19.5099 34.5103L29.5099 24.5103C32.8474 21.1103 32.6849 16.6353 30.0349 13.9853Z" fill="#9DC4EF" fill-opacity="0.6" shape-rendering="crispEdges"/>
<path d="M30.0349 13.9853C29.4078 13.356 28.6626 12.8567 27.8422 12.5161C27.0217 12.1754 26.142 12 25.2536 12C24.3652 12 23.4856 12.1754 22.6651 12.5161C21.8446 12.8567 21.0995 13.356 20.4724 13.9853L19.5099 14.9603L18.5474 13.9853C17.9203 13.356 17.1751 12.8567 16.3547 12.5161C15.5342 12.1754 14.6545 12 13.7661 12C12.8777 12 11.9981 12.1754 11.1776 12.5161C10.3571 12.8567 9.61197 13.356 8.98487 13.9853C6.33487 16.6353 6.17237 21.1103 9.50987 24.5103L19.5099 34.5103L29.5099 24.5103C32.8474 21.1103 32.6849 16.6353 30.0349 13.9853Z" fill="url(#paint3_linear_91_645)" shape-rendering="crispEdges"/>
</g>
<defs>
<filter id="filter0_d_91_645" x="14.4902" y="4.23975" width="35.0195" height="32.5103" filterUnits="userSpaceOnUse" color-interpolation-filters="sRGB">
<feFlood flood-opacity="0" result="BackgroundImageFix"/>
<feColorMatrix in="SourceAlpha" type="matrix" values="0 0 0 0 0 0 0 0 0 0 0 0 0 0 0 0 0 0 127 0" result="hardAlpha"/>
<feOffset dy="2"/>
<feGaussianBlur stdDeviation="2.5"/>
<feComposite in2="hardAlpha" operator="out"/>
<feColorMatrix type="matrix" values="0 0 0 0 0.391667 0 0 0 0 0.391667 0 0 0 0 0.391667 0 0 0 0.15 0"/>
<feBlend mode="normal" in2="BackgroundImageFix" result="effect1_dropShadow_91_645"/>
<feBlend mode="normal" in="SourceGraphic" in2="effect1_dropShadow_91_645" result="shape"/>
</filter>
<filter id="filter1_bdd_91_645" x="2" y="7" width="35.0195" height="34.5103" filterUnits="userSpaceOnUse" color-interpolation-filters="sRGB">
<feFlood flood-opacity="0" result="BackgroundImageFix"/>
<feGaussianBlur in="BackgroundImageFix" stdDeviation="2.5"/>
<feComposite in2="SourceAlpha" operator="in" result="effect1_backgroundBlur_91_645"/>
<feColorMatrix in="SourceAlpha" type="matrix" values="0 0 0 0 0 0 0 0 0 0 0 0 0 0 0 0 0 0 127 0" result="hardAlpha"/>
<feOffset dy="2"/>
<feGaussianBlur stdDeviation="2.5"/>
<feComposite in2="hardAlpha" operator="out"/>
<feColorMatrix type="matrix" values="0 0 0 0 0.391667 0 0 0 0 0.391667 0 0 0 0 0.391667 0 0 0 0.15 0"/>
<feBlend mode="normal" in2="effect1_backgroundBlur_91_645" result="effect2_dropShadow_91_645"/>
<feColorMatrix in="SourceAlpha" type="matrix" values="0 0 0 0 0 0 0 0 0 0 0 0 0 0 0 0 0 0 127 0" result="hardAlpha"/>
<feOffset dy="1"/>
<feComposite in2="hardAlpha" operator="out"/>
<feColorMatrix type="matrix" values="0 0 0 0 1 0 0 0 0 1 0 0 0 0 1 0 0 0 0.8 0"/>
<feBlend mode="normal" in2="effect2_dropShadow_91_645" result="effect3_dropShadow_91_645"/>
<feBlend mode="normal" in="SourceGraphic" in2="effect3_dropShadow_91_645" result="shape"/>
</filter>
<linearGradient id="paint0_linear_91_645" x1="1.03378" y1="2.90261e-05" x2="51.3731" y2="2.30907" gradientUnits="userSpaceOnUse">
<stop offset="0.151042" stop-color="white" stop-opacity="0"/>
<stop offset="1" stop-color="#F5FBFF"/>
</linearGradient>
<linearGradient id="paint1_linear_91_645" x1="32.0001" y1="7.23975" x2="32.0001" y2="29.7501" gradientUnits="userSpaceOnUse">
<stop stop-color="#9DC4EF"/>
<stop offset="1" stop-color="#4A83DC"/>
</linearGradient>
<linearGradient id="paint2_linear_91_645" x1="19.9974" y1="7.23976" x2="44.695" y2="8.35078" gradientUnits="userSpaceOnUse">
<stop offset="0.151042" stop-color="white" stop-opacity="0"/>
<stop offset="1" stop-color="#F5FBFF"/>
</linearGradient>
<linearGradient id="paint3_linear_91_645" x1="7.50716" y1="12" x2="32.2048" y2="13.111" gradientUnits="userSpaceOnUse">
<stop offset="0.151042" stop-color="white" stop-opacity="0"/>
<stop offset="1" stop-color="#F5FBFF"/>
</linearGradient>
</defs>
</svg>
