<svg width="24" height="24" viewBox="0 0 24 24" fill="none" xmlns="http://www.w3.org/2000/svg">
<path d="M18.759 16.42C18.8234 16.8529 18.6875 17.0321 18.5502 17.0321C18.4015 17.0321 18.2127 16.8572 17.9924 16.5103C17.7736 16.1692 17.695 15.7778 17.8022 15.5786C17.8737 15.4481 18.0239 15.3908 18.2127 15.4624C18.5774 15.6015 18.7218 16.162 18.759 16.42ZM16.7382 17.3632C17.1758 17.7345 17.3088 18.176 17.0771 18.4871C16.9484 18.6577 16.7396 18.7523 16.4893 18.7523C16.2391 18.7523 15.9931 18.6605 15.82 18.5086C15.4224 18.1603 15.3052 17.594 15.5655 17.2729C15.667 17.1468 15.8315 17.078 16.0303 17.078C16.2705 17.078 16.5222 17.1798 16.7396 17.3632H16.7382ZM16.0059 20.9455C17.8923 20.9455 19.9389 21.5935 22.2043 23.6061C22.4317 23.8082 22.7334 23.5573 22.5361 23.3065C20.3093 20.4882 18.2499 19.9521 16.1962 19.4991C13.6848 18.9444 12.3919 17.5281 11.4909 15.9713C11.3121 15.6617 11.2321 15.7162 11.2149 16.1147C11.1949 16.6006 11.2292 17.2457 11.3379 17.8779C11.2364 17.8822 11.1348 17.8807 11.0318 17.8807C7.43784 17.8807 4.52459 14.9607 4.52459 11.3584C4.52459 7.75605 7.43784 4.83604 11.0318 4.83604C14.6258 4.83604 17.5391 7.75605 17.5391 11.3584C17.5391 11.615 17.5262 11.8673 17.4976 12.1167C17.0228 12.0307 16.0875 12.0207 15.431 12.078C15.1836 12.0995 15.2194 12.2142 15.4053 12.2486C17.5562 12.6385 19.0336 13.9745 19.3725 16.3985C19.3797 16.4544 19.4526 16.4716 19.4812 16.4229C20.3665 14.9421 20.8742 13.2104 20.8742 11.3584C20.8771 5.91116 16.4693 1.49316 11.0333 1.49316C5.59722 1.49316 1.18945 5.91116 1.18945 11.3598C1.18945 16.8085 5.59722 21.2265 11.0333 21.2265C12.4763 21.2265 13.9065 20.9455 16.0059 20.9455Z" fill="#FF8C00"/>
</svg>
