<svg width="47" height="24" viewBox="0 0 47 24" fill="none" xmlns="http://www.w3.org/2000/svg">
<path d="M41.3329 12.7183H39.2377V8.60234H37.2203V12.7183H35.1251V6.85034H41.3329V12.7183Z" fill="black"/>
<path fill-rule="evenodd" clip-rule="evenodd" d="M30.8221 12.9281C32.6977 12.9281 34.0905 11.7781 34.0905 10.0347C34.0905 8.34734 33.0629 7.25174 31.3455 7.25174C30.5529 7.25174 29.8989 7.53074 29.4063 8.01214C29.5239 7.01714 30.3653 6.29074 31.2917 6.29074C31.5055 6.29074 33.1151 6.28734 33.1151 6.28734L34.0253 4.54554C34.0253 4.54554 32.0045 4.59154 31.0651 4.59154C28.9187 4.62894 27.4689 6.57994 27.4689 8.94954C27.4689 11.7101 28.8829 12.9281 30.8221 12.9281ZM30.8335 8.79454C31.5299 8.79454 32.0127 9.25214 32.0127 10.0345C32.0127 10.7387 31.5837 11.3189 30.8335 11.3205C30.1159 11.3205 29.6331 10.7829 29.6331 10.0465C29.6331 9.26394 30.1159 8.79454 30.8335 8.79454Z" fill="black"/>
<path d="M25.7635 10.7539C25.7635 10.7539 25.2687 11.0391 24.5297 11.0931C23.6801 11.1183 22.9231 10.5817 22.9231 9.62834C22.9231 8.69834 23.5911 8.16534 24.5083 8.16534C25.0707 8.16534 25.8147 8.55514 25.8147 8.55514C25.8147 8.55514 26.3591 7.55614 26.6411 7.05654C26.1247 6.66514 25.4369 6.45054 24.6369 6.45054C22.6179 6.45054 21.0541 7.76694 21.0541 9.61654C21.0541 11.4897 22.5239 12.7755 24.6369 12.7367C25.2275 12.7147 26.0423 12.5073 26.5389 12.1883L25.7635 10.7539Z" fill="black"/>
<path d="M0 5.224L2.9064 10.419V13.5878L0.0034 18.7726L0 5.224Z" fill="#5B57A2"/>
<path d="M11.1594 8.5286L13.8828 6.8594L19.4564 6.8542L11.1594 11.937V8.5286Z" fill="#D90751"/>
<path d="M11.144 5.1934L11.1594 12.0714L8.2462 10.2814V0L11.144 5.1934Z" fill="#FAB718"/>
<path d="M19.4564 6.8542L13.8828 6.8594L11.144 5.1934L8.2462 0L19.4564 6.8542Z" fill="#ED6F26"/>
<path d="M11.1594 18.8014V15.4644L8.2462 13.7084L8.2478 24L11.1594 18.8014Z" fill="#63B22F"/>
<path d="M13.876 17.1474L2.9064 10.419L0 5.224L19.4446 17.1406L13.876 17.1474Z" fill="#1487C9"/>
<path d="M8.248 24L11.1594 18.8014L13.876 17.1474L19.4446 17.1406L8.248 24Z" fill="#017F36"/>
<path d="M0.0034 18.7726L8.27 13.7086L5.4908 12.0034L2.9064 13.5878L0.0034 18.7726Z" fill="#984995"/>
<path d="M22.9237 16.6673C22.8597 16.7489 22.7755 16.8105 22.6745 16.8521C22.5709 16.8943 22.46 16.9158 22.3481 16.9153C22.2369 16.9168 22.1262 16.8983 22.0215 16.8605C21.9275 16.8264 21.8416 16.7731 21.7691 16.7041C21.6976 16.635 21.6414 16.5516 21.6043 16.4593C21.5641 16.3583 21.5441 16.2503 21.5453 16.1415C21.5453 16.0335 21.5639 15.9335 21.6025 15.8387C21.6395 15.7437 21.6933 15.6623 21.7607 15.5939C21.8281 15.5241 21.9089 15.4709 21.9997 15.4293C22.0923 15.3893 22.1933 15.3677 22.3043 15.3677C22.4239 15.3677 22.5349 15.3827 22.6359 15.4125C22.7369 15.4425 22.8227 15.4925 22.8933 15.5625L22.7705 15.7705C22.7111 15.7167 22.6412 15.6758 22.5651 15.6505C22.4928 15.6272 22.4173 15.6155 22.3413 15.6157C22.2741 15.6157 22.2101 15.6289 22.1479 15.6539C22.0866 15.6786 22.0306 15.7148 21.9829 15.7605C21.9342 15.8076 21.8958 15.8642 21.8701 15.9269C21.8415 15.9917 21.8281 16.0633 21.8281 16.1431C21.8281 16.2247 21.8431 16.2979 21.8717 16.3611C21.9005 16.4261 21.9391 16.4811 21.9879 16.5275C22.0367 16.5743 22.0939 16.6091 22.1595 16.6325C22.2253 16.6575 22.2943 16.6691 22.3683 16.6691C22.4591 16.6691 22.5417 16.6507 22.6123 16.6157C22.6823 16.582 22.7451 16.5351 22.7975 16.4777L22.9237 16.6673ZM23.2703 16.8803V15.3993H23.5363V16.5027L24.4013 15.3993H24.6673V16.8805H24.4013V15.7771L23.5363 16.8805L23.2703 16.8803ZM26.4293 16.6673C26.3639 16.7496 26.278 16.8133 26.1803 16.8521C26.0766 16.8943 25.9657 16.9158 25.8537 16.9153C25.7425 16.9168 25.6319 16.8983 25.5273 16.8605C25.4332 16.8264 25.3472 16.7731 25.2747 16.7041C25.2032 16.635 25.147 16.5516 25.1099 16.4593C25.0697 16.3583 25.0497 16.2503 25.0509 16.1415C25.0509 16.0335 25.0695 15.9335 25.1081 15.8387C25.1453 15.7437 25.1991 15.6623 25.2663 15.5939C25.3337 15.5241 25.4145 15.4709 25.5053 15.4293C25.6012 15.3871 25.7051 15.3661 25.8099 15.3677C25.9295 15.3677 26.0405 15.3827 26.1415 15.4125C26.2425 15.4425 26.3283 15.4925 26.3991 15.5625L26.2761 15.7705C26.2168 15.7167 26.1469 15.6758 26.0709 15.6505C25.9986 15.6273 25.9231 15.6155 25.8471 15.6157C25.7134 15.6162 25.585 15.668 25.4885 15.7605C25.4402 15.8079 25.4018 15.8645 25.3757 15.9269C25.3471 15.9917 25.3337 16.0633 25.3337 16.1431C25.3337 16.2247 25.3489 16.2979 25.3775 16.3611C25.4061 16.4261 25.4447 16.4811 25.4935 16.5275C25.5423 16.5743 25.5997 16.6091 25.6653 16.6325C25.7309 16.6557 25.7999 16.6691 25.8739 16.6691C25.9649 16.6691 26.0457 16.6507 26.1179 16.6157C26.1879 16.582 26.2507 16.5351 26.3031 16.4777L26.4293 16.6673ZM26.5657 15.3993H27.9305V15.6623H27.3819V16.8803H27.1159V15.6623H26.5673V15.3993H26.5657Z" fill="black"/>
<path fill-rule="evenodd" clip-rule="evenodd" d="M29.1727 16.8655C29.2737 16.8339 29.3595 16.7855 29.4335 16.7191L29.3527 16.5127C29.3039 16.5561 29.2383 16.5927 29.1593 16.6227C29.0801 16.6527 28.9909 16.6675 28.8933 16.6675C28.7469 16.6675 28.6257 16.6293 28.5297 16.5511C28.4339 16.4727 28.3817 16.3631 28.3699 16.2231H29.5211C29.5329 16.1715 29.5379 16.1133 29.5379 16.0451C29.5379 15.9435 29.5193 15.8521 29.4823 15.7689C29.4479 15.6881 29.3976 15.6151 29.3343 15.5541C29.2702 15.4938 29.1947 15.4468 29.1121 15.4161C29.0257 15.3826 28.9338 15.3657 28.8411 15.3661C28.7165 15.3661 28.6071 15.3877 28.5113 15.4277C28.4208 15.4658 28.3388 15.5219 28.2705 15.5925C28.2042 15.6628 28.1533 15.7461 28.1209 15.8371C28.0854 15.9341 28.0677 16.0367 28.0687 16.1399C28.0687 16.2565 28.0889 16.3629 28.1259 16.4579C28.1619 16.55 28.217 16.6333 28.2875 16.7025C28.3565 16.7705 28.4405 16.8223 28.5399 16.8589C28.6463 16.8967 28.7586 16.9152 28.8715 16.9137C28.9738 16.9131 29.0753 16.8967 29.1727 16.8655ZM28.4995 15.7255C28.5819 15.6507 28.6913 15.6141 28.8293 15.6141C28.9589 15.6141 29.0633 15.6491 29.1391 15.7191C29.2149 15.7889 29.2551 15.8855 29.2619 16.0085H28.3531C28.366 15.8996 28.418 15.7989 28.4995 15.7255Z" fill="black"/>
<path d="M29.8997 15.3993H30.1421L30.7177 16.1333L31.2629 15.3993H31.4985V16.8805H31.2327V15.8005L30.7143 16.4877H30.7041L30.1657 15.8003V16.8803H29.8997V15.3993Z" fill="black"/>
<path fill-rule="evenodd" clip-rule="evenodd" d="M32.2221 15.4043C32.1414 15.4254 32.0643 15.4585 31.9933 15.5023L32.0639 15.7123C32.1245 15.6823 32.1851 15.6573 32.2457 15.6357C32.3063 15.6139 32.3837 15.6039 32.4763 15.6039C32.5503 15.6039 32.6093 15.6157 32.6547 15.6389C32.7001 15.6605 32.7337 15.6939 32.7573 15.7339C32.7809 15.7739 32.7961 15.8237 32.8045 15.8819C32.8129 15.9401 32.8163 16.0033 32.8163 16.0717C32.7619 16.0338 32.6999 16.0082 32.6345 15.9967C32.5713 15.9842 32.5071 15.9775 32.4427 15.9767C32.3635 15.9767 32.2895 15.9885 32.2187 16.0083C32.1481 16.0283 32.0875 16.0583 32.0387 16.0983C31.9889 16.1383 31.9487 16.1888 31.9209 16.2463C31.8913 16.3093 31.8763 16.3782 31.8771 16.4477C31.8771 16.5925 31.9193 16.7057 32.0033 16.7857C32.0875 16.8655 32.1985 16.9053 32.3365 16.9053C32.4611 16.9053 32.5605 16.8837 32.6361 16.8405C32.7119 16.7971 32.7725 16.7473 32.8163 16.6907V16.8821H33.0653V15.9735C33.0653 15.7803 33.0233 15.6307 32.9375 15.5257C32.8533 15.4209 32.7035 15.3677 32.4915 15.3677C32.3971 15.3677 32.3079 15.3809 32.2221 15.4043ZM32.6667 16.6043C32.6061 16.6475 32.5269 16.6673 32.4293 16.6673C32.3435 16.6673 32.2761 16.6457 32.2291 16.6041C32.1819 16.5609 32.1583 16.5043 32.1583 16.4343C32.1583 16.3929 32.1667 16.3579 32.1853 16.3263C32.2039 16.2947 32.2291 16.2697 32.2577 16.2497C32.289 16.2288 32.3237 16.2136 32.3603 16.2047C32.3991 16.1947 32.4377 16.1897 32.4781 16.1897C32.6095 16.1897 32.7221 16.2213 32.8147 16.2879V16.4759C32.7711 16.5248 32.7213 16.5681 32.6667 16.6043ZM35.4133 14.8783C35.4671 14.8535 35.5175 14.8119 35.5647 14.7503L35.4199 14.5423C35.3829 14.5923 35.3409 14.6271 35.2937 14.6455C35.2437 14.6651 35.1918 14.6796 35.1389 14.6887L35.0885 14.6977C35.0447 14.7053 34.9977 14.7137 34.9471 14.7221C34.866 14.7371 34.7869 14.7617 34.7115 14.7953C34.5919 14.8469 34.4961 14.9167 34.4237 15.0049C34.3513 15.0931 34.2941 15.1929 34.2553 15.3029C34.216 15.4144 34.1895 15.5299 34.1763 15.6473C34.1627 15.7673 34.1561 15.8819 34.1561 15.9917C34.1561 16.1333 34.1745 16.2613 34.2115 16.3761C34.2487 16.4911 34.3007 16.5875 34.3697 16.6657C34.4387 16.7457 34.5213 16.8057 34.6189 16.8489C34.7165 16.8921 34.8259 16.9137 34.9487 16.9137C35.0615 16.9137 35.1659 16.8921 35.2601 16.8521C35.3509 16.8137 35.4333 16.7578 35.5025 16.6875C35.5697 16.6191 35.6237 16.5375 35.6607 16.4461C35.6993 16.3545 35.7179 16.2563 35.7179 16.1531C35.7179 16.0417 35.7011 15.9403 35.6691 15.8503C35.6397 15.7645 35.5927 15.6858 35.5311 15.6191C35.4695 15.5536 35.3942 15.5024 35.3105 15.4691C35.2184 15.4329 35.1201 15.4148 35.0211 15.4159C34.9571 15.4159 34.8949 15.4243 34.8343 15.4409C34.7754 15.4576 34.7188 15.4816 34.6659 15.5125C34.6146 15.5419 34.5676 15.5783 34.5263 15.6205C34.4859 15.6623 34.4523 15.7089 34.4287 15.7621H34.4219C34.4271 15.6939 34.4355 15.6241 34.4505 15.5525C34.4657 15.4809 34.4875 15.4125 34.5163 15.3477C34.5449 15.2829 34.5819 15.2245 34.6273 15.1713C34.676 15.1176 34.7357 15.0751 34.8023 15.0465C34.8756 15.0116 34.9531 14.9865 35.0329 14.9717L35.0857 14.9621C35.1383 14.9525 35.1885 14.9433 35.2365 14.9333C35.3005 14.9201 35.3593 14.9031 35.4133 14.8783ZM34.4775 16.3013C34.4515 16.2173 34.439 16.1297 34.4405 16.0417C34.4518 15.9913 34.4724 15.9433 34.5011 15.9003C34.5297 15.8553 34.5667 15.8155 34.6105 15.7803C34.7094 15.7029 34.8316 15.6613 34.9571 15.6623C35.1137 15.6623 35.2315 15.7105 35.3139 15.8055C35.3965 15.9019 35.4369 16.0217 35.4369 16.1665C35.4369 16.2381 35.4233 16.3031 35.3999 16.3629C35.3772 16.4219 35.3428 16.4757 35.2989 16.5212C35.2549 16.5667 35.2023 16.6028 35.1441 16.6275C35.0835 16.6541 35.0177 16.6675 34.9437 16.6675C34.8697 16.6675 34.8023 16.6525 34.7401 16.6225C34.6783 16.5931 34.6237 16.5505 34.5801 16.4977C34.5345 16.4389 34.4998 16.3724 34.4775 16.3013ZM37.7577 15.3993H37.4917V16.8805H37.7577V15.3993ZM36.3675 15.3993V15.8437H36.6133C36.7293 15.8437 36.8235 15.8587 36.8993 15.8869C36.9751 15.9153 37.0357 15.9535 37.0811 16.0001C37.1265 16.0467 37.1585 16.1017 37.1771 16.1631C37.1955 16.2247 37.2057 16.2879 37.2057 16.3545C37.2057 16.4211 37.1955 16.4845 37.1737 16.5477C37.1535 16.6109 37.1181 16.6657 37.0709 16.7157C37.0239 16.7657 36.9599 16.8057 36.8791 16.8357C36.7983 16.8655 36.7007 16.8821 36.5829 16.8821H36.0999V15.3993H36.3675ZM36.3675 16.6341H36.5611C36.6941 16.6341 36.7883 16.6109 36.8421 16.5641C36.8961 16.5175 36.9229 16.4511 36.9229 16.3629C36.9229 16.2729 36.8943 16.2049 36.8405 16.1581C36.7849 16.1115 36.6923 16.0881 36.5645 16.0881H36.3675V16.6341Z" fill="black"/>
<path d="M39.5165 16.6673C39.4525 16.7489 39.3683 16.8105 39.2673 16.8521C39.1637 16.8943 39.0528 16.9158 38.9409 16.9153C38.8297 16.9168 38.719 16.8983 38.6143 16.8605C38.5203 16.8264 38.4343 16.7732 38.3619 16.7041C38.2904 16.635 38.2342 16.5516 38.1969 16.4593C38.1569 16.3582 38.1369 16.2503 38.1381 16.1415C38.1381 16.0335 38.1565 15.9335 38.1953 15.8387C38.2323 15.7437 38.2861 15.6623 38.3535 15.5939C38.4209 15.5241 38.5015 15.4709 38.5925 15.4293C38.6884 15.3871 38.7923 15.3661 38.8971 15.3677C39.0165 15.3677 39.1277 15.3827 39.2287 15.4125C39.3297 15.4425 39.4155 15.4925 39.4861 15.5625L39.3633 15.7705C39.3039 15.7167 39.234 15.6758 39.1579 15.6505C39.0856 15.6272 39.0101 15.6155 38.9341 15.6157C38.8669 15.6157 38.8029 15.6289 38.7405 15.6539C38.6793 15.6786 38.6234 15.7148 38.5757 15.7605C38.5273 15.8079 38.489 15.8645 38.4629 15.9269C38.4343 15.9917 38.4209 16.0633 38.4209 16.1431C38.4209 16.2247 38.4359 16.2979 38.4645 16.3611C38.4931 16.4261 38.5319 16.4811 38.5807 16.5275C38.6295 16.5743 38.6867 16.6091 38.7523 16.6325C38.8181 16.6557 38.8871 16.6691 38.9611 16.6691C39.0519 16.6691 39.1327 16.6507 39.2051 16.6157C39.2751 16.582 39.3379 16.5351 39.3903 16.4777L39.5165 16.6673ZM39.6527 15.3993H41.0177V15.6623H40.4689V16.8803H40.2031V15.6623H39.6545V15.3993H39.6527Z" fill="black"/>
<path fill-rule="evenodd" clip-rule="evenodd" d="M41.5731 15.3995H41.3071V17.5395H41.5731V16.8123C41.6269 16.8473 41.6909 16.8723 41.7649 16.8889C41.8389 16.9055 41.9163 16.9137 41.9955 16.9137C42.1133 16.9137 42.2193 16.8921 42.3153 16.8523C42.4074 16.813 42.4908 16.7559 42.5609 16.6843C42.6299 16.6125 42.6821 16.5293 42.7191 16.4311C42.7561 16.3331 42.7747 16.2281 42.7747 16.1167C42.7747 16.0067 42.7579 15.9053 42.7259 15.8137C42.6958 15.7267 42.6489 15.6465 42.5879 15.5775C42.5281 15.5103 42.4538 15.4574 42.3707 15.4227C42.2799 15.3837 42.1818 15.3644 42.0829 15.3661C41.9787 15.3661 41.8811 15.3861 41.7885 15.4261C41.6959 15.4661 41.6235 15.5141 41.5731 15.5741V15.3995ZM41.7583 15.6741C41.8341 15.6341 41.9165 15.6141 42.0057 15.6141C42.0831 15.6141 42.1521 15.6257 42.2145 15.6507C42.2751 15.6757 42.3255 15.7107 42.3677 15.7573C42.4097 15.8039 42.4417 15.8573 42.4619 15.9203C42.4837 15.9835 42.4939 16.0519 42.4939 16.1267C42.4939 16.2067 42.4803 16.2781 42.4569 16.3447C42.4349 16.4079 42.3998 16.4657 42.3541 16.5145C42.3082 16.5628 42.2526 16.6007 42.1909 16.6259C42.1222 16.6547 42.0482 16.6689 41.9737 16.6675C41.9015 16.6675 41.8341 16.6593 41.7701 16.6427C41.7001 16.6237 41.6336 16.5933 41.5733 16.5527V15.8187C41.6203 15.7623 41.6827 15.7141 41.7583 15.6741ZM44.8145 15.3993H44.5485V16.8805H44.8145V15.3993ZM43.4227 15.3993V15.8437H43.6683C43.7845 15.8437 43.8787 15.8587 43.9545 15.8869C44.0303 15.9153 44.0909 15.9535 44.1363 16.0001C44.1817 16.0467 44.2137 16.1017 44.2321 16.1631C44.2507 16.2247 44.2607 16.2879 44.2607 16.3545C44.2607 16.4211 44.2507 16.4845 44.2289 16.5477C44.2087 16.6109 44.1733 16.6657 44.1261 16.7157C44.0791 16.7657 44.0151 16.8057 43.9343 16.8357C43.8535 16.8655 43.7559 16.8821 43.6381 16.8821H43.1551V15.3993H43.4227ZM43.4245 16.6341H43.6181C43.7509 16.6341 43.8453 16.6109 43.8991 16.5641C43.9529 16.5175 43.9799 16.4511 43.9799 16.3629C43.9799 16.2729 43.9513 16.2049 43.8975 16.1581C43.8419 16.1115 43.7493 16.0881 43.6215 16.0881H43.4245V16.6341Z" fill="black"/>
<path d="M46.0903 16.1133L46.6591 16.8805H46.3327L45.8933 16.2813L45.4473 16.8805H45.1377L45.7031 16.1265L45.1713 15.3993H45.4979L45.9035 15.9585L46.3157 15.3993H46.6255L46.0903 16.1133ZM22.7269 18.7111H21.9107V19.9459H21.6447V18.4649H22.9927V19.9459H22.7269V18.7111ZM24.5023 18.7277H23.9773L23.9603 18.9773C23.9419 19.1887 23.9167 19.3585 23.8813 19.4881C23.8459 19.6181 23.8021 19.7179 23.7517 19.7877C23.7013 19.8577 23.6423 19.9059 23.5749 19.9293C23.5054 19.9545 23.4319 19.9669 23.3579 19.9659L23.3377 19.7095C23.3663 19.7111 23.3999 19.7045 23.4369 19.6879C23.4741 19.6713 23.5111 19.6347 23.5463 19.5799C23.5817 19.5231 23.6137 19.4433 23.6423 19.3401C23.6709 19.2353 23.6895 19.0989 23.6995 18.9273L23.7265 18.4663H24.7683V19.9475H24.5023V18.7277Z" fill="black"/>
<path fill-rule="evenodd" clip-rule="evenodd" d="M25.4853 18.4683C25.3993 18.4915 25.3219 18.5247 25.2563 18.5663L25.3271 18.7761C25.3877 18.7461 25.4483 18.7211 25.5087 18.6995C25.5693 18.6779 25.6469 18.6679 25.7393 18.6679C25.8135 18.6679 25.8723 18.6795 25.9177 18.7027C25.9633 18.7245 25.9969 18.7577 26.0205 18.7977C26.0439 18.8377 26.0591 18.8877 26.0675 18.9457C26.0759 19.0041 26.0793 19.0673 26.0793 19.1355C26.0249 19.0977 25.9628 19.0721 25.8975 19.0607C25.8343 19.0482 25.7701 19.0415 25.7057 19.0407C25.6267 19.0407 25.5525 19.0523 25.4819 19.0723C25.4111 19.0923 25.3505 19.1223 25.3017 19.1623C25.2519 19.2023 25.2117 19.2528 25.1839 19.3103C25.1543 19.3733 25.1394 19.4422 25.1403 19.5117C25.1403 19.6563 25.1823 19.7697 25.2665 19.8495C25.3505 19.9293 25.4617 19.9693 25.5997 19.9693C25.7243 19.9693 25.8235 19.9477 25.8993 19.9043C25.9749 19.8611 26.0355 19.8111 26.0793 19.7545V19.9459H26.3285V19.0373C26.3285 18.8443 26.2863 18.6945 26.2005 18.5897C26.1163 18.4847 25.9665 18.4317 25.7545 18.4317C25.6636 18.4318 25.573 18.4443 25.4853 18.4683ZM25.9313 19.6679C25.8709 19.7113 25.7917 19.7313 25.6941 19.7313C25.6065 19.7313 25.5409 19.7097 25.4939 19.6679C25.4467 19.6247 25.4231 19.5681 25.4231 19.4983C25.4231 19.4567 25.4315 19.4217 25.4501 19.3901C25.4685 19.3585 25.4939 19.3335 25.5225 19.3135C25.5511 19.2935 25.5863 19.2785 25.6251 19.2685C25.6636 19.2586 25.7032 19.2536 25.7429 19.2537C25.8741 19.2537 25.9869 19.2853 26.0795 19.3517V19.5397C26.0358 19.5886 25.986 19.6317 25.9313 19.6679Z" fill="black"/>
<path d="M26.5891 18.4649H27.9541V18.7277H27.4053V19.9459H27.1395V18.7279H26.5909V18.4649H26.5891Z" fill="black"/>
<path fill-rule="evenodd" clip-rule="evenodd" d="M29.1963 19.9309C29.2973 19.8993 29.3831 19.8509 29.4571 19.7845L29.3763 19.5781C29.3275 19.6215 29.2619 19.6581 29.1827 19.6881C29.1037 19.7181 29.0145 19.7329 28.9169 19.7329C28.7705 19.7329 28.6493 19.6947 28.5533 19.6165C28.4573 19.5383 28.4053 19.4285 28.3935 19.2885H29.5447C29.5563 19.2371 29.5615 19.1787 29.5615 19.1105C29.5615 19.0091 29.5429 18.9175 29.5059 18.8343C29.4715 18.7536 29.4211 18.6806 29.3577 18.6197C29.2937 18.5592 29.2182 18.5122 29.1357 18.4815C29.0493 18.448 28.9574 18.4311 28.8647 18.4315C28.7401 18.4315 28.6307 18.4531 28.5349 18.4931C28.4443 18.5312 28.3624 18.5872 28.2941 18.6579C28.2278 18.7282 28.1768 18.8115 28.1443 18.9025C28.1089 18.9995 28.0912 19.1021 28.0921 19.2053C28.0921 19.3219 28.1123 19.4283 28.1493 19.5233C28.1865 19.6181 28.2419 19.6997 28.3109 19.7679C28.3799 19.8361 28.4641 19.8877 28.5635 19.9243C28.6699 19.9621 28.7821 19.9808 28.8949 19.9793C28.9943 19.9793 29.0953 19.9625 29.1963 19.9309ZM28.5215 18.7893C28.6039 18.7145 28.7133 18.6779 28.8513 18.6779C28.9827 18.6779 29.0853 18.7145 29.1611 18.7827C29.2367 18.8527 29.2771 18.9491 29.2839 19.0723H28.3751C28.388 18.9634 28.44 18.8628 28.5215 18.7893ZM29.6911 18.4649H30.0277L30.5409 19.1789L29.9923 19.9459H29.6659L30.2413 19.1787L29.6911 18.4649ZM30.6065 18.4649H30.8725V19.9459H30.6065V18.4649ZM31.8233 19.9459L31.2377 19.1787L31.7847 18.4647H31.4547L30.9381 19.1787L31.4935 19.9459H31.8233ZM33.0385 19.9309C33.1395 19.8993 33.2253 19.8509 33.2993 19.7845L33.2185 19.5781C33.1697 19.6215 33.1041 19.6581 33.0251 19.6881C32.9459 19.7181 32.8567 19.7329 32.7591 19.7329C32.6127 19.7329 32.4915 19.6947 32.3955 19.6165C32.2997 19.5383 32.2475 19.4285 32.2357 19.2885H33.3869C33.3987 19.2371 33.4037 19.1787 33.4037 19.1105C33.4037 19.0091 33.3853 18.9175 33.3481 18.8343C33.3137 18.7536 33.2633 18.6806 33.2001 18.6197C33.1361 18.5592 33.0605 18.5122 32.9779 18.4815C32.8915 18.448 32.7996 18.4311 32.7069 18.4315C32.5825 18.4315 32.4731 18.4531 32.3771 18.4931C32.2866 18.5312 32.2047 18.5873 32.1365 18.6579C32.0701 18.7281 32.0191 18.8115 31.9867 18.9025C31.9512 18.9995 31.9335 19.1021 31.9345 19.2053C31.9345 19.3219 31.9547 19.4283 31.9917 19.5233C32.0287 19.6181 32.0843 19.6997 32.1533 19.7679C32.2223 19.8361 32.3063 19.8877 32.4057 19.9243C32.5121 19.9621 32.6244 19.9808 32.7373 19.9793C32.8396 19.9786 32.9412 19.9623 33.0385 19.9309ZM32.3637 18.7893C32.4463 18.7145 32.5557 18.6779 32.6937 18.6779C32.8233 18.6779 32.9275 18.7145 33.0033 18.7827C33.0791 18.8527 33.1195 18.9491 33.1261 19.0723H32.2173C32.2302 18.9634 32.2822 18.8628 32.3637 18.7893ZM34.4827 17.9673C34.3261 17.9673 34.2403 17.8807 34.2269 17.7077H33.9761C33.9761 17.7741 33.9879 17.8341 34.0097 17.8907C34.0317 17.9473 34.0637 17.9955 34.1057 18.0355C34.1477 18.0755 34.2017 18.1071 34.2639 18.1319C34.3261 18.1569 34.3985 18.1685 34.4809 18.1685C34.5567 18.1685 34.6241 18.1569 34.6847 18.1319C34.7453 18.1087 34.7957 18.0755 34.8395 18.0355C34.8815 17.9955 34.9153 17.9473 34.9387 17.8907C34.9623 17.8341 34.9741 17.7741 34.9741 17.7077H34.7251C34.7133 17.8807 34.6307 17.9673 34.4827 17.9673ZM33.7639 18.4647V19.9459H34.0299L34.8949 18.8425V19.9459H35.1609V18.4647H34.8949L34.0299 19.5681V18.4647H33.7639Z" fill="black"/>
</svg>
