<svg width="27" height="24" viewBox="0 0 27 24" fill="none" xmlns="http://www.w3.org/2000/svg">
<g clip-path="url(#clip0_764_3947)">
<path d="M16.7132 3.37207C11.8922 3.37207 8.02675 7.2322 8.02675 11.9501C8.02675 16.7109 11.9357 20.5282 16.7132 20.5282C21.4908 20.5282 25.3997 16.6681 25.3997 11.9501C25.3997 7.2322 21.4908 3.37207 16.7132 3.37207ZM16.7132 15.0811C14.9325 15.0811 13.4558 13.6228 13.4558 11.8643C13.4558 10.1058 14.9325 8.64757 16.7132 8.64757C18.494 8.64757 19.9707 10.1058 19.9707 11.8643C19.9272 13.7086 18.494 15.0811 16.7132 15.0811ZM7.98332 5.81682V18.2979H4.89962L0.947266 5.81682H7.98332Z" fill="#8B3FFD"/>
</g>
<defs>
<clipPath id="clip0_764_3947">
<rect width="25.9592" height="24" fill="white" transform="translate(0.189453)"/>
</clipPath>
</defs>
</svg>
