<svg width="68" height="64" viewBox="0 0 68 64" fill="none" xmlns="http://www.w3.org/2000/svg">
<g id="logo_mini">
<g id="Group 200">
<g id="Group">
<path id="Vector" d="M47.6572 23.3445C47.8376 23.3186 48.0679 23.1984 48.1534 23.051C48.6082 22.2735 49.6931 21.6697 50.5704 21.8161C52.0105 22.0579 53.4543 22.3082 54.8834 22.6123C55.4573 22.7375 55.9549 23.0858 56.2752 23.5818C56.5913 24.0777 56.6985 24.682 56.5734 25.2597C56.4242 25.9118 56.5414 26.3824 56.9597 26.9245C58.5424 28.9717 59.3305 31.3667 59.7168 33.8955C60.4418 38.6114 60.6154 43.3542 60.1091 48.1057C59.8008 50.9866 59.3229 53.8351 58.0743 56.483C57.7393 57.1902 57.3422 57.8905 56.8451 58.49C55.1171 60.5638 52.9906 60.6745 50.9721 58.873C49.7683 57.7982 48.8664 56.4889 48.0889 55.0968C46.4485 52.1706 45.3931 49.0176 44.55 45.7772C44.5323 45.7052 44.4976 45.6408 44.4542 45.5844C44.4066 45.5279 44.3502 45.4835 44.2849 45.4514C44.2196 45.4192 44.1494 45.4037 44.0786 45.4006C44.0079 45.3976 43.9365 45.4113 43.8684 45.442C43.1379 45.7548 42.4248 45.9551 41.6441 45.8882C39.7709 45.7329 38.4737 44.7926 37.7779 43.0558C37.59 42.5823 37.3424 42.3326 36.8415 42.2526C34.925 41.9444 33.0092 41.6194 31.0981 41.2821C30.7177 41.2113 30.4749 41.331 30.2207 41.618C28.5042 43.5203 25.7188 43.6406 23.8609 41.8837C23.5165 41.5586 23.3382 41.5385 23.0451 41.9538C21.1648 44.6544 19.0716 47.1698 16.5652 49.3111C15.0459 50.6095 13.4444 51.7827 11.4452 52.226C9.41642 52.6805 7.93628 51.9212 7.12764 49.9993C6.41773 48.2997 6.3748 46.5027 6.52777 44.7057C6.92598 40.0418 8.32559 35.643 10.1655 31.3761C11.2592 28.8391 12.4185 26.33 13.993 24.0483C15.1982 22.3046 16.6348 20.8013 18.5253 19.7872C18.7088 19.6902 18.8618 19.4283 18.921 19.2169C19.0488 18.7694 19.0983 18.3017 19.1932 17.8444C19.2989 17.3288 19.6395 17.0665 20.1087 16.8223C21.0128 16.3491 21.8867 16.4786 22.8037 16.6729C23.7989 16.8873 24.8009 17.0433 25.8012 17.2369C26.8303 17.4402 27.6703 18.4449 27.734 19.4752C27.7429 19.5594 27.7687 19.636 27.8114 19.7092C27.8541 19.7823 27.914 19.8436 27.9829 19.8884L36.7227 21.8339C37.4452 21.9947 38.1774 22.1224 38.9151 22.221L47.6527 23.3526L47.6572 23.3445Z" fill="white"/>
<path id="Vector_2" d="M53.6673 60.5526C52.6687 60.51 51.6715 60.0523 50.7005 59.1846C49.6131 58.2113 48.6705 56.9757 47.7303 55.2999C46.2913 52.7261 45.154 49.7333 44.1539 45.8822L44.2935 45.452L44.1103 45.83L44.0396 45.827C43.4196 46.09 42.5773 46.3854 41.6179 46.3068C39.5702 46.1398 38.1523 45.0979 37.3961 43.216C37.2497 42.8448 37.1089 42.7256 36.7821 42.6697C35.0642 42.3951 33.2393 42.0866 31.0345 41.699C30.836 41.6612 30.7307 41.6861 30.5379 41.9044C29.6273 42.9099 28.4099 43.4913 27.1113 43.545C25.8169 43.5947 24.5621 43.1176 23.5811 42.1908C23.5332 42.1426 23.4968 42.1159 23.4686 42.0937C23.4467 42.1179 23.4203 42.1504 23.3892 42.1952C21.2644 45.2461 19.1249 47.6757 16.8394 49.6292C15.3373 50.9116 13.6575 52.1611 11.5404 52.6329C9.3307 53.1259 7.62627 52.2521 6.75 50.1596C5.94209 48.2209 5.98783 46.2054 6.11707 44.6674C6.47432 40.4674 7.63946 36.1886 9.78553 31.205C10.7819 28.8945 11.9814 26.2277 13.6538 23.8034C15.0457 21.7908 16.5753 20.3544 18.3336 19.4102C18.3806 19.3828 18.4825 19.2445 18.5266 19.0912C18.6003 18.8343 18.6456 18.5594 18.6955 18.2722C18.724 18.0972 18.7566 17.9224 18.789 17.7519C18.9365 17.0409 19.4181 16.7008 19.9212 16.4412C20.9533 15.9022 21.9555 16.054 22.8972 16.2535C23.4878 16.3793 24.0957 16.4891 24.6831 16.5939C25.0843 16.6655 25.4855 16.7371 25.8864 16.8171C27.0849 17.0528 28.0811 18.2067 28.1526 19.4429C28.1526 19.4429 28.16 19.4642 28.1715 19.4857C28.1715 19.4857 28.1753 19.4942 28.1795 19.4944L36.816 21.4187C37.522 21.5746 38.246 21.7019 38.9713 21.7958L47.6342 22.9201C47.706 22.898 47.7746 22.8547 47.7965 22.8305C48.3547 21.877 49.6291 21.2309 50.6388 21.3998C51.93 21.6142 53.4525 21.8763 54.9724 22.2011C55.6619 22.3521 56.2485 22.763 56.6272 23.3538C57.0057 23.9487 57.1335 24.6546 56.9827 25.3445C56.8639 25.8721 56.9449 26.2153 57.2882 26.6619C58.7486 28.5487 59.6805 30.8953 60.1285 33.8294C60.8795 38.7142 61.0123 43.5307 60.5244 48.1488C60.2436 50.7792 59.7769 53.8505 58.4546 56.6589C58.0509 57.5099 57.6335 58.1967 57.1674 58.7557C56.2441 59.8613 55.2093 60.4631 54.0886 60.5454C53.9464 60.5561 53.8087 60.5586 53.6673 60.5526ZM44.1098 44.9786C44.2346 44.9839 44.3583 45.0143 44.4726 45.0695C44.5909 45.1291 44.6956 45.2133 44.7788 45.3133C44.8618 45.4175 44.9235 45.5334 44.9553 45.6647C45.9375 49.4479 47.0484 52.3767 48.4527 54.8861C49.3422 56.4801 50.2295 57.6462 51.2489 58.5537C52.184 59.3862 53.1133 59.774 54.0249 59.708C54.9115 59.6409 55.7543 59.14 56.5238 58.2165C56.9416 57.7142 57.3232 57.0846 57.6949 56.2993C58.962 53.6103 59.4028 50.7518 59.6905 48.0587C60.1751 43.516 60.0433 38.7708 59.3018 33.9577C58.8726 31.167 57.9974 28.9529 56.6238 27.1788C56.1265 26.5369 55.986 25.9311 56.1609 25.1668C56.2601 24.7055 56.1732 24.211 55.9196 23.8102C55.6621 23.4049 55.2616 23.1236 54.7908 23.0238C53.2916 22.7041 51.7774 22.4424 50.4986 22.2285C49.8241 22.1158 48.8944 22.6005 48.5072 23.2635C48.3407 23.5458 47.9915 23.7154 47.7146 23.7582L47.6558 23.7682L47.5975 23.7657L38.8601 22.6299C38.11 22.5308 37.3611 22.4024 36.6305 22.237L27.8165 20.2716L27.7517 20.2269C27.6344 20.1464 27.5347 20.0415 27.4609 19.9167C27.3871 19.7919 27.3389 19.6557 27.3242 19.5124C27.2706 18.6336 26.5564 17.802 25.7258 17.6366C25.3289 17.5609 24.9319 17.4895 24.5348 17.418C23.9391 17.3129 23.327 17.2029 22.7241 17.0724C21.8692 16.8891 21.0948 16.7722 20.3059 17.1832C19.8494 17.4238 19.6705 17.6091 19.6069 17.921C19.5749 18.0832 19.5468 18.2497 19.519 18.4121C19.4684 18.712 19.4175 19.0202 19.3294 19.3226C19.2507 19.6003 19.0426 19.9773 18.7267 20.1483C17.0667 21.0381 15.6717 22.3501 14.3377 24.2771C12.7098 26.6362 11.529 29.2577 10.5508 31.5312C8.44187 36.4283 7.29718 40.6199 6.94791 44.7322C6.82683 46.1783 6.77839 48.0636 7.51886 49.8275C8.24035 51.5485 9.53273 52.216 11.3595 51.8073C13.2998 51.3741 14.8807 50.1958 16.3006 48.9813C18.5299 47.0757 20.6256 44.6946 22.706 41.7047C22.8569 41.493 23.0634 41.2501 23.3816 41.2176C23.6956 41.1848 23.9456 41.38 24.15 41.5691C24.9669 42.3379 26.0041 42.7387 27.0772 42.6963C28.1544 42.6542 29.1634 42.1687 29.9209 41.3286C30.1706 41.0498 30.5424 40.7427 31.1833 40.8623C33.3798 41.2496 35.2005 41.5579 36.9143 41.8323C37.5394 41.9302 37.9133 42.2481 38.1688 42.8924C38.8044 44.4797 39.9558 45.3216 41.6837 45.4623C42.3025 45.5139 42.9082 45.3887 43.7109 45.0454C43.8299 44.9918 43.9602 44.968 44.0933 44.9737L44.1099 44.9744L44.1098 44.9786Z" fill="black"/>
</g>
<path id="Vector_3" d="M27.5006 31.4997C27.5006 28.8024 29.6124 29.0653 30.5473 27.7796C31.4833 26.4687 32.984 25.1107 35.0411 23.701C37.0692 22.2901 38.5197 21.0306 39.3926 19.9268C40.2903 18.8283 40.8636 17.6152 41.1046 16.283C41.3231 15.0841 41.2645 14.2215 40.929 13.6912C40.6235 13.1411 40.0802 12.7906 39.2946 12.6479C37.6945 12.3529 36.7278 13.1212 36.39 14.9569L35.9706 17.238C35.8995 17.6293 35.5256 17.8902 35.1328 17.8189L32.1685 17.2683C31.7798 17.1971 31.521 16.821 31.5923 16.4255L31.9622 14.4234C32.3766 12.163 33.2842 10.5447 34.681 9.56404C36.0831 8.55842 37.9087 8.26316 40.1538 8.67809C42.3988 9.09301 44.0007 10.0216 44.9511 11.4635C45.9111 12.8765 46.1816 14.7173 45.7672 16.9776C45.4561 18.6802 44.7127 20.2594 43.545 21.7239C42.4064 23.1897 40.5916 24.7776 38.1004 26.4918C36.472 27.622 35.3387 28.5804 34.7004 29.367C34.0674 30.1286 33.6586 31.0047 33.4786 31.9871C33.4186 32.316 33.634 32.6357 33.9648 32.696L41.4606 34.0824C41.8493 34.1535 42.1081 34.5296 42.0368 34.9251L41.5632 37.4934C41.4921 37.8847 41.1183 38.1456 40.7255 38.0743L28.752 35.8585C28.3634 35.7874 28.1046 35.4113 28.1758 35.0158L27.5002 32.6963L27.5006 31.4997Z" fill="#44F06A"/>
<path id="Vector_4" fill-rule="evenodd" clip-rule="evenodd" d="M38.7173 19.386L38.7214 19.3862C39.5313 18.3888 40.0365 17.307 40.2541 16.129C40.4667 14.9718 40.3497 14.4005 40.1974 14.1632L40.1816 14.1415L40.1703 14.1159C40.0234 13.8495 39.7376 13.6149 39.1299 13.5008C38.4933 13.3812 38.1256 13.4998 37.8927 13.6828C37.638 13.8858 37.3741 14.3025 37.2265 15.1143L36.807 17.3954C36.6489 18.257 35.824 18.8301 34.9682 18.6718L32.0038 18.1212C31.1438 17.9627 30.5796 17.1331 30.7377 16.2714L31.1034 14.2691C31.545 11.863 32.5378 10.0092 34.1753 8.85846C35.8225 7.67873 37.9064 7.38613 40.3003 7.8284C42.6942 8.27068 44.5339 9.28917 45.6568 10.9818C46.7812 12.6409 47.045 14.7331 46.6036 17.135C46.2652 18.9874 45.4578 20.6981 44.2109 22.26C42.9931 23.8231 41.0965 25.4704 38.5753 27.2043C36.9641 28.3226 35.9125 29.2216 35.3535 29.9108L35.3531 29.9192C34.8697 30.4985 34.5455 31.1517 34.3721 31.8868L41.6114 33.2287C42.4714 33.3871 43.0357 34.2168 42.8776 35.0785L42.404 37.6468C42.2459 38.5084 41.421 39.0815 40.5652 38.9232L28.5918 36.7074C27.7318 36.549 27.1675 35.7193 27.3256 34.8576L26.5002 32.5C26.8821 30.4145 28.822 28.679 29.8499 27.2672C30.87 25.8425 32.4569 24.4168 34.5526 22.9836C36.5548 21.5925 37.9236 20.3925 38.7131 19.3858L38.7173 19.386ZM35.0386 23.6966C32.9816 25.1021 31.4851 26.4603 30.5448 27.7752C29.614 29.0611 27.6951 30.5062 27.3256 32.5L28.1689 35.0154C28.0979 35.4067 28.3567 35.7828 28.7451 35.8581L40.7186 38.0739C41.1072 38.145 41.4851 37.8885 41.5563 37.493L42.0299 34.9247C42.101 34.5334 41.8422 34.1573 41.4537 34.082L33.9579 32.6956C33.6312 32.6354 33.4117 32.3156 33.4717 31.9867C33.6517 31.0043 34.0605 30.1282 34.6935 29.3666C35.332 28.5758 36.4653 27.6174 38.0935 26.4914C40.5845 24.7814 42.3995 23.1894 43.5381 21.7236C44.7056 20.2632 45.445 18.6796 45.7601 16.9814C46.1745 14.721 45.9038 12.8845 44.944 11.4673C43.9895 10.0252 42.3917 9.09681 40.1467 8.68188C37.9017 8.26696 36.076 8.56222 34.674 9.56783C33.2773 10.5443 32.3695 12.1668 31.9551 14.4272L31.5893 16.4295C31.5183 16.8208 31.7771 17.1969 32.1656 17.2722L35.1299 17.8228C35.5186 17.894 35.8964 17.6375 35.9676 17.242L36.3871 14.9609C36.7248 13.1252 37.6916 12.3568 39.2917 12.6519C40.0771 12.7987 40.6248 13.1452 40.9261 13.6951C41.2657 14.2257 41.3243 15.0882 41.1018 16.2828C40.8569 17.6106 40.2875 18.8281 39.3899 19.9266C38.5212 21.0306 37.0708 22.2859 35.0384 23.7008L35.0386 23.6966Z" fill="black"/>
<path id="Vector_5" d="M54.1377 58.6011C55.8096 58.4881 56.4968 55.4129 56.8246 54.097C58.6157 46.8863 58.5086 39.3343 56.5173 32.1799C56.0947 30.6766 55.5646 29.152 54.5227 27.9957C52.6494 25.9227 49.6489 25.4377 47.022 25.9504C44.332 26.4771 42.2654 29.2625 41.1337 31.6306C39.9016 34.2 37.4028 41.586 41.353 43.1437C42.1028 43.4401 42.9456 43.3209 43.7505 43.3092C44.5597 43.2935 45.4578 43.4368 45.9553 44.0748C46.2 44.3916 46.3163 44.7867 46.4248 45.1689C47.1229 47.6279 47.8837 50.0812 48.9755 52.3976C49.5751 53.6651 50.2296 54.914 51.0516 56.0483C51.6415 56.8623 52.2557 57.8871 53.1645 58.3623C53.5234 58.5455 53.8455 58.6138 54.1379 58.5969L54.1377 58.6011Z" fill="black"/>
<path id="Vector_6" d="M53.4126 31.8834L52.35 31.6869C52.0938 31.6382 51.8331 31.69 51.6186 31.8318L50.7698 32.3786C50.534 32.5322 50.3692 32.7768 50.3198 33.0516C50.2704 33.3264 50.3328 33.6185 50.5023 33.844L51.1006 34.6583C51.2541 34.8662 51.4771 35.01 51.7336 35.0546L52.7961 35.2511C53.346 35.3543 53.8786 34.9869 53.9817 34.4334L54.2322 33.0722C54.3353 32.5186 53.9707 31.987 53.4168 31.8836L53.4126 31.8834ZM45.4696 33.9013L46.5322 34.0978C46.7843 34.1463 47.0491 34.0947 47.2636 33.9529L48.1124 33.406C48.3482 33.2525 48.513 33.0078 48.5624 32.7331C48.6118 32.4583 48.5452 32.166 48.3799 31.9407L47.7816 31.1264C47.6281 30.9184 47.4009 30.7745 47.1486 30.7301L46.0861 30.5336C45.5362 30.4304 45.0036 30.7977 44.9005 31.3513L44.65 32.7125C44.5469 33.266 44.9113 33.8019 45.4654 33.9011L45.4696 33.9013ZM49.8836 33.9853C49.7327 33.811 49.5296 33.6891 49.3021 33.6499C49.0747 33.6067 48.8396 33.6469 48.639 33.7558L47.8624 34.1757C47.7302 34.2455 47.6132 34.3496 47.5204 34.4715C47.4318 34.5936 47.3714 34.7378 47.344 34.8877L47.0886 36.2654C46.9855 36.819 47.3499 37.3548 47.9041 37.454L49.2602 37.7051C49.81 37.8083 50.3427 37.4409 50.4416 36.8872L50.697 35.5095C50.752 35.2014 50.6696 34.8916 50.4672 34.6563L49.8919 33.9856L49.8836 33.9853ZM51.5425 30.893L51.7979 29.5152C51.901 28.9617 51.5366 28.4259 50.9824 28.3266L49.6263 28.0756C49.0765 27.9724 48.5439 28.3397 48.4449 28.8935L48.1895 30.2712C48.1345 30.5793 48.217 30.8891 48.4194 31.1243L48.9947 31.795C49.1535 31.978 49.3569 32.0916 49.5761 32.1304C49.7952 32.1733 50.0301 32.1372 50.2392 32.0245L51.0158 31.6046C51.1482 31.5306 51.265 31.4307 51.3578 31.3088C51.4465 31.1867 51.5069 31.0425 51.5342 30.8926L51.5425 30.893Z" fill="#F5F5F5"/>
<path id="Vector_7" d="M9.82251 49.8021C10.5273 50.3693 11.6324 50.2572 12.4003 49.8453C13.7869 49.1034 14.8713 47.7317 15.9569 46.6245C17.6486 44.897 19.2644 43.0909 20.8597 41.2796C21.2146 40.8795 21.5615 40.4706 21.9123 40.0661C23.7105 37.995 25.5864 41.3602 27.6705 40.6775C29.8349 39.9688 29.896 37.6849 29.1383 35.9324C28.797 35.1501 28.4174 34.387 27.9953 33.6432C27.8558 33.3981 27.7676 33.1258 27.7379 32.8476C27.7085 32.5653 27.7374 32.2812 27.824 32.0122C27.9107 31.7433 28.0507 31.4933 28.2348 31.283C28.4189 31.0728 28.6472 30.9021 28.9024 30.783C29.3233 30.5912 29.725 30.3609 30.1031 30.096C31.122 29.376 31.9449 28.2701 32.0238 27.0233C32.1526 25.0066 30.401 23.3962 28.6655 22.3779C27.1128 21.4682 25.3892 20.7526 23.597 20.7556C21.5922 20.7621 19.6645 21.6823 18.1407 22.9974C16.6169 24.3124 15.4523 25.9953 14.4311 27.7346C12.5513 30.9223 11.0826 34.3374 10.0536 37.8972C9.18121 40.9183 7.3294 46.6412 9.559 49.5349C9.63803 49.6348 9.72575 49.7267 9.82649 49.8065L9.82251 49.8021Z" fill="black"/>
<path id="Vector_8" d="M9.46943 50.2162C10.167 50.7579 11.0516 50.8293 11.8857 50.6217C12.6186 50.4433 13.2759 49.989 13.8467 49.5099C14.4692 48.9912 15.0279 48.4068 15.5787 47.8136C16.1423 47.2126 16.7178 46.6247 17.2855 46.0239C18.5474 44.6935 19.7734 43.3279 20.9872 41.9534C21.2896 41.6098 21.592 41.2661 21.8904 40.9181C22.0309 40.7521 22.1756 40.5863 22.3201 40.4246C22.3683 40.3721 22.4122 40.3195 22.4643 40.2714C22.4818 40.2511 22.5855 40.1675 22.4775 40.2552C22.5164 40.2233 22.5553 40.1914 22.5942 40.1595C22.6331 40.1276 22.6888 40.0922 22.7401 40.0608C22.7616 40.045 22.8123 40.0303 22.8257 40.0099C22.7644 40.0786 22.7448 40.0484 22.8212 40.0181C22.868 39.995 22.9186 39.9804 22.9695 39.9616C22.9863 39.9581 23.0375 39.9309 23.0581 39.936C22.9698 39.9532 22.9528 39.9608 23.0118 39.9466L23.0409 39.9478C23.0999 39.9336 23.1585 39.9277 23.2169 39.926C23.246 39.9272 23.2751 39.9285 23.3044 39.9255C23.388 39.9207 23.2417 39.9312 23.2503 39.9232C23.2811 39.8868 23.5567 39.9699 23.6063 39.9804C23.6558 39.9909 23.8483 40.0705 23.6766 39.9918C23.7258 40.0107 23.7794 40.0256 23.8286 40.0445C23.9515 40.0917 24.0742 40.1473 24.1926 40.2027C24.4334 40.3221 24.6656 40.4453 24.8976 40.5727C25.3863 40.8369 25.8838 41.089 26.4241 41.2212C27.7064 41.5403 29.0752 40.8228 29.7035 39.6876C30.3181 38.5811 30.1831 37.1741 29.7615 36.0317C29.4705 35.2431 29.0661 34.4748 28.6646 33.736C28.6107 33.633 28.5566 33.5342 28.4986 33.4311C28.4753 33.3923 28.4563 33.3495 28.4329 33.3108C28.3859 33.2416 28.478 33.426 28.4252 33.2979C28.3912 33.2167 28.3611 33.1399 28.3313 33.0589C28.3241 33.0334 28.3127 33.0078 28.3054 32.9823C28.2982 32.9568 28.2912 32.9271 28.2837 32.9058C28.2975 32.9736 28.3013 32.9821 28.2913 32.9229C28.2821 32.847 28.2729 32.7711 28.2677 32.6996C28.2691 32.6661 28.2622 32.6322 28.2637 32.5987C28.2651 32.5652 28.2366 32.4549 28.2644 32.582C28.2631 32.5148 28.2702 32.448 28.2897 32.3817C28.2957 32.34 28.3056 32.3026 28.3116 32.2609C28.3174 32.2234 28.3583 32.049 28.3223 32.2069C28.3659 32.0661 28.4259 31.9302 28.5062 31.8078C28.5558 31.7218 28.5062 31.8078 28.493 31.824C28.5153 31.7914 28.5375 31.7588 28.5639 31.7263C28.6169 31.6573 28.6781 31.5928 28.7392 31.5283C28.7611 31.504 28.8343 31.4484 28.7394 31.5241C28.7696 31.5002 28.8041 31.4723 28.8343 31.4484C28.8904 31.4047 28.9504 31.3653 29.0103 31.3301C29.0275 31.3183 29.1554 31.2524 29.0403 31.3104C29.0872 31.2873 29.1338 31.2683 29.1807 31.2451C29.304 31.1875 29.4277 31.1214 29.5513 31.0596C30.2932 30.6718 30.9776 30.1683 31.514 29.52C32.0286 28.8959 32.4242 28.1325 32.5258 27.323C32.6197 26.597 32.5058 25.8579 32.2054 25.1906C31.6043 23.8643 30.4714 22.8844 29.2666 22.1197C27.8389 21.2111 26.2 20.4655 24.508 20.2715C22.9282 20.0864 21.3511 20.4174 19.9363 21.1372C18.4874 21.8765 17.2492 22.9479 16.2036 24.1911C15.1052 25.4992 14.2081 26.9712 13.381 28.4629C12.5218 30.0203 11.752 31.632 11.0888 33.2859C10.4535 34.8698 9.90023 36.4865 9.43339 38.1279C9.1201 39.2052 8.80682 40.2826 8.55124 41.3751C8.25947 42.6296 8.04222 43.8957 7.98233 45.1853C7.93165 46.3578 8.02061 47.5783 8.46098 48.6711C8.68704 49.2262 9.00679 49.8314 9.47757 50.2208C9.69478 50.4021 10.0534 50.3965 10.2385 50.1652C10.4235 49.934 10.4173 49.5939 10.184 49.3993C9.99884 49.2488 9.84602 49.0241 9.695 48.7575C9.68343 48.736 9.593 48.6105 9.60223 48.5899C9.593 48.6105 9.65594 48.6971 9.61 48.6028C9.59861 48.5772 9.58306 48.5513 9.57184 48.5215C9.51487 48.3932 9.45791 48.2649 9.40944 48.1328C9.36838 48.0219 9.33167 47.9071 9.29912 47.7924C9.27706 47.7243 9.25933 47.6523 9.24143 47.5844L9.22371 47.5123C9.21702 47.4743 9.16077 47.3292 9.21304 47.4699C9.17669 47.3467 9.153 47.2198 9.14197 47.0893C9.119 46.9456 9.1002 46.8022 9.08555 46.6589C9.05608 46.3766 9.04342 46.0907 9.03909 45.8053C9.0371 45.6584 9.03928 45.5116 9.04145 45.3649C9.04435 45.2979 9.04724 45.2309 9.05014 45.1639C9.05141 45.1345 9.04906 44.996 9.05086 45.1471C9.05267 45.1052 9.0543 45.0675 9.05611 45.0257C9.09501 44.4148 9.16719 43.8054 9.27247 43.2016C9.48121 42.0358 9.74784 40.8809 10.0761 39.7454C10.214 39.2563 10.3558 38.7715 10.4976 38.2867C10.7179 37.5284 10.9411 36.7995 11.175 36.1131C12.2817 32.8755 13.7513 29.7289 15.6011 26.8504L15.6727 26.736C15.7306 26.6503 15.6056 26.8422 15.6995 26.6952C15.753 26.6136 15.8109 26.5279 15.8686 26.4465C15.9845 26.271 16.1044 26.1 16.2283 25.9333C16.4633 25.6077 16.7062 25.2909 16.9612 24.9829C17.2162 24.675 17.479 24.38 17.7581 24.094C17.8976 23.9532 18.037 23.8123 18.1846 23.676C18.2237 23.6399 18.2627 23.6038 18.3062 23.5637C18.2888 23.5797 18.2454 23.6198 18.3235 23.5477C18.4058 23.4757 18.4924 23.3997 18.5789 23.3279C18.8641 23.0925 19.1571 22.8701 19.4662 22.661C19.6035 22.5704 19.7408 22.4798 19.8819 22.3977C19.9589 22.3507 20.036 22.3036 20.117 22.2609L20.2237 22.2026C20.2237 22.2026 20.4156 22.1017 20.3176 22.152C20.6372 21.9895 20.9683 21.8485 21.3029 21.7243C21.4639 21.6641 21.6245 21.6122 21.7891 21.5647C21.8735 21.539 21.962 21.5176 22.0464 21.4918L22.1644 21.4633L22.236 21.4454C22.177 21.4597 22.1812 21.4599 22.2401 21.4456C22.5892 21.3724 22.9453 21.3289 23.3006 21.3064C23.4885 21.2976 23.6802 21.2975 23.8717 21.3015C24.0632 21.3055 23.8218 21.2993 23.9258 21.3038C23.9716 21.3057 24.0215 21.3079 24.0714 21.31C24.1835 21.319 24.2996 21.3324 24.4116 21.3455C24.8343 21.4014 25.2557 21.4865 25.663 21.6089L25.803 21.6484C25.803 21.6484 25.9798 21.7021 25.8852 21.6729C25.9757 21.7019 26.0659 21.7352 26.1562 21.7684C26.3738 21.8448 26.5866 21.9337 26.7953 22.0223C27.5193 22.3386 28.2198 22.7168 28.8848 23.1438C29.0065 23.2203 28.824 23.1034 28.9011 23.1529L28.9942 23.2156C29.0631 23.2605 29.1277 23.3094 29.1964 23.3585C29.3379 23.461 29.4751 23.5634 29.6121 23.6742C29.8698 23.8824 30.1145 24.1026 30.346 24.3391C30.378 24.3698 30.4057 24.4046 30.4377 24.4353L30.4814 24.4833C30.4257 24.4222 30.521 24.5312 30.521 24.5312C30.5487 24.5659 30.5766 24.5965 30.6042 24.6312C30.7032 24.7529 30.8017 24.883 30.8918 25.0169C30.982 25.1466 31.0638 25.2802 31.137 25.4176C31.1488 25.4348 31.2099 25.5633 31.1526 25.4434L31.1868 25.5204C31.2249 25.6017 31.2629 25.6873 31.2926 25.7724C31.345 25.9089 31.389 26.0493 31.4244 26.1934C31.4642 26.3336 31.4042 26.0835 31.4316 26.2189C31.4387 26.2486 31.4418 26.2739 31.4488 26.3035C31.4655 26.4007 31.4779 26.4978 31.4861 26.5988C31.4911 26.6745 31.4966 26.7419 31.4976 26.8133C31.496 26.851 31.4868 27.0645 31.4969 26.9265C31.4799 27.1272 31.4504 27.3273 31.4003 27.5223C31.3947 27.5556 31.3808 27.5886 31.3754 27.6177C31.3352 27.7754 31.413 27.5187 31.3605 27.6716C31.3321 27.7501 31.3037 27.8286 31.2712 27.907C31.1882 28.0922 31.097 28.2729 30.9896 28.4445C30.9044 28.5835 31.0514 28.3632 30.9539 28.4975C30.936 28.5261 30.914 28.5545 30.8962 28.579C30.8431 28.6522 30.7855 28.7294 30.724 28.8023C30.6009 28.9523 30.4654 29.0975 30.3261 29.2342C30.2912 29.2705 30.2522 29.3065 30.2133 29.3384C30.2784 29.2783 30.2133 29.3385 30.2004 29.3463C30.1227 29.4101 30.0447 29.4781 29.963 29.5375C29.8078 29.6567 29.6446 29.7672 29.4775 29.8733C29.392 29.9242 29.3021 29.9791 29.2165 30.03L29.097 30.0962C29.097 30.0962 28.9393 30.1775 29.0244 30.135C28.8325 30.2359 28.6374 30.3157 28.4493 30.4251C28.1413 30.6091 27.8765 30.8537 27.6723 31.1428C27.4638 31.4359 27.3203 31.7654 27.251 32.1149C27.1827 32.4434 27.1807 32.7789 27.2416 33.1046C27.3241 33.5109 27.5011 33.8499 27.7022 34.2109C28.0936 34.8947 28.4338 35.6057 28.7271 36.3398C28.7798 36.4721 28.8239 36.6083 28.8678 36.7486C28.8859 36.8123 28.904 36.876 28.9221 36.9397C28.9329 36.9779 28.9396 37.016 28.9505 37.0542C28.9787 37.1729 28.9337 36.9612 28.9539 37.0711C29.0125 37.3547 29.0416 37.6455 29.0499 37.9353C29.0595 38.0028 29.0606 38.0742 29.0492 38.145C29.0863 38.0585 29.0526 38.0655 29.0497 38.1325C29.0443 38.1616 29.047 38.1953 29.0458 38.2246C29.0311 38.3708 29.0081 38.5167 28.9727 38.662C28.9618 38.7203 28.9427 38.7782 28.9275 38.8404C28.8929 38.9648 28.9743 38.7208 28.9275 38.8404C28.9182 38.861 28.913 38.886 28.9036 38.9108C28.8519 39.047 28.7878 39.1785 28.7158 39.3013C28.7113 39.3095 28.6444 39.4115 28.6978 39.3341C28.747 39.2565 28.68 39.3585 28.6755 39.3667C28.6401 39.4155 28.6004 39.4642 28.5608 39.5128C28.5125 39.5695 28.4601 39.626 28.4078 39.6783C28.3903 39.6985 28.3729 39.7145 28.3556 39.7306C28.4753 39.6602 28.3427 39.7384 28.3125 39.7623C28.196 39.8538 28.0718 39.9324 27.9477 40.0068C27.9264 40.0185 27.8584 40.0491 27.9604 40.0031C27.922 40.0225 27.8795 40.0416 27.8455 40.057C27.7647 40.0954 27.68 40.1254 27.5952 40.1595C27.5317 40.182 27.4684 40.2002 27.4093 40.2187C27.2951 40.2557 27.531 40.1987 27.4093 40.2187C27.3756 40.2256 27.3422 40.2284 27.3085 40.2353C27.2541 40.2414 27.1996 40.2475 27.1454 40.2493C27.1121 40.2479 27.0787 40.2507 27.0454 40.2493C26.9747 40.2462 26.9551 40.216 27.0579 40.2498C26.951 40.2158 26.8131 40.2225 26.7017 40.1968C26.648 40.1861 26.5945 40.1712 26.5409 40.1563C26.5082 40.1424 26.4793 40.1369 26.4464 40.1271C26.5872 40.1457 26.4997 40.1462 26.4547 40.1275C25.9622 39.9512 25.5071 39.68 25.0467 39.4379C24.5985 39.2006 24.1169 38.966 23.6117 38.8899C23.3303 38.8442 23.0464 38.8573 22.7684 38.9251C22.4945 38.9931 22.235 39.1162 22.0028 39.2825C21.6969 39.5127 21.4593 39.8046 21.2135 40.092C20.9239 40.4278 20.63 40.7676 20.3321 41.1031C19.7361 41.7782 19.1405 42.445 18.5408 43.1115C17.9455 43.7699 17.3463 44.4239 16.7392 45.0692C16.1714 45.67 15.5876 46.2575 15.0196 46.8625C14.7617 47.141 14.5038 47.4194 14.2378 47.6933C14.1155 47.8223 13.9892 47.947 13.8628 48.0758C13.7975 48.1402 13.7281 48.2043 13.6626 48.2728C13.6322 48.3009 13.6018 48.329 13.5754 48.3614C13.549 48.3938 13.5275 48.4097 13.5016 48.4296C13.5407 48.3935 13.5364 48.3975 13.4929 48.4376C13.2198 48.6818 12.9308 48.9086 12.6259 49.1179C12.4799 49.2165 12.3343 49.3068 12.1849 49.3885C12.1592 49.4042 12.0614 49.4503 12.1636 49.4002C12.1211 49.4193 12.0827 49.4387 12.0402 49.4578C11.9552 49.4961 11.8664 49.5259 11.7776 49.5557C11.7015 49.5818 11.6215 49.5993 11.5456 49.6212C11.6635 49.5927 11.5078 49.628 11.4953 49.6275C11.449 49.6381 11.4029 49.6445 11.3526 49.6507C11.273 49.6599 11.1934 49.6691 11.1142 49.6699C11.0685 49.6679 11.0184 49.67 10.9683 49.672C10.8688 49.6594 10.9433 49.671 10.9683 49.672C10.8854 49.6601 10.7981 49.6564 10.7112 49.6401L10.5957 49.6141C10.5749 49.6133 10.4315 49.5568 10.5543 49.6082C10.4805 49.5799 10.4108 49.5517 10.3416 49.5152C10.3007 49.4966 10.2602 49.4697 10.2195 49.447C10.3249 49.5145 10.1994 49.4294 10.1833 49.4161C9.96158 49.243 9.6118 49.2364 9.42243 49.4716C9.2468 49.6781 9.23956 50.0386 9.47739 50.225L9.46943 50.2162Z" fill="black"/>
<path id="Vector_9" d="M24.0937 23.0606C24.6974 23.1704 25.0971 23.758 24.9834 24.3657L23.6607 31.5377C23.5469 32.1454 22.9669 32.5485 22.3632 32.4387C21.7595 32.329 21.3598 31.7413 21.4735 31.1336L22.7962 23.9616C22.91 23.354 23.49 22.9509 24.0937 23.0606Z" fill="#F5F5F5"/>
<path id="Vector_10" d="M18.5724 26.8854C18.6861 26.2778 19.2662 25.8746 19.8697 25.9886L27.0016 27.3091C27.6054 27.4188 28.005 28.0065 27.8913 28.6141C27.7775 29.2218 27.1975 29.6249 26.5939 29.511L19.462 28.1905C18.8583 28.0807 18.4586 27.4931 18.5724 26.8854Z" fill="#F5F5F5"/>
</g>
</g>
</svg>
