<svg width="106" height="24" viewBox="0 0 106 24" fill="none" xmlns="http://www.w3.org/2000/svg">
<g opacity="0.75">
<path d="M62.1289 1.31836H61.8789V1.56836V22.4325V22.6825H62.1289H64.4538H64.7038V22.4325V14.4561H66.5104C68.206 14.4561 69.4976 14.0124 70.3617 13.1C71.2235 12.1902 71.6187 10.8577 71.6187 9.16886V6.66517C71.6187 5.05374 71.2621 3.7108 70.4476 2.76849C69.6272 1.81942 68.3789 1.31836 66.6892 1.31836H62.1289ZM81.4757 22.6825H81.7257V22.4325V20.3163V20.0663H81.4757H75.7645V1.56836V1.31836H75.5145H73.1897H72.9397V1.56836V22.4325V22.6825H73.1897H81.4757ZM84.7816 22.6825H84.9883L85.0272 22.4795L85.793 18.4798H90.6553L91.4212 22.4795L91.4601 22.6825H91.6668H93.9916H94.294L94.2372 22.3855L90.2432 1.52136L90.2043 1.31836H89.9976H86.6296H86.4229L86.384 1.52136L82.3901 22.3855L82.3332 22.6825H82.6356H84.7816ZM97.7966 22.4325V22.6825H98.0466H100.342H100.592V22.4325V14.9916L105.02 1.6471L105.129 1.31836H104.783H102.577H102.395L102.339 1.49222L99.2996 10.9974L96.288 1.49284L96.2327 1.31836H96.0496H93.6354H93.2897L93.3979 1.64662L97.7966 14.9913V22.4325ZM66.5104 11.8696H64.7038V3.93458H66.6892C67.4915 3.93458 68.0029 4.15787 68.3238 4.55665C68.6544 4.96751 68.8237 5.61328 68.8237 6.54594V9.31789C68.8237 10.2888 68.6197 10.9127 68.2583 11.2962C67.9003 11.6762 67.3406 11.8696 66.5104 11.8696ZM90.2305 15.9829H86.1866L88.1826 5.51006L90.2305 15.9829Z" fill="#212B36" stroke="#212B36" stroke-width="0.5"/>
<path d="M1.21875 1.30288H0.96875V1.55288V22.417V22.667H1.21875H3.54361H3.79361V22.417V13.755H5.18293C6.12776 13.755 6.81023 13.9383 7.25949 14.3552C7.70499 14.7686 7.97313 15.4612 7.97313 16.6049V19.8835C7.97313 21.3016 8.09391 21.878 8.38263 22.5196L8.44896 22.667H8.61061H10.9653H11.385L11.1851 22.2979C10.8321 21.6462 10.798 20.8447 10.798 19.9133V16.6645C10.798 15.5239 10.6161 14.5293 10.1695 13.7396C9.81635 13.1154 9.30469 12.6317 8.61453 12.307C9.25642 11.9928 9.75349 11.5385 10.1072 10.9427C10.5628 10.1754 10.7682 9.19458 10.7682 8.02076V6.32182C10.7682 4.74062 10.4192 3.4743 9.60541 2.60416C8.78856 1.7307 7.54744 1.30288 5.86847 1.30288H1.21875ZM15.4046 1.55288V1.30288H15.1546H12.8596H12.6096V1.55288V17.3798C12.6096 18.9936 12.9821 20.3773 13.7958 21.3617C14.616 22.3539 15.8554 22.9054 17.5093 22.9054C19.1774 22.9054 20.4243 22.3544 21.2485 21.3622C22.0663 20.3776 22.4388 18.9936 22.4388 17.3798V1.55288V1.30288H22.1888H20.013H19.763V1.55288V17.499C19.763 18.4112 19.5809 19.1005 19.233 19.5568C18.8942 20.001 18.3712 20.2594 17.5987 20.2594C16.8098 20.2594 16.2795 20 15.9377 19.5559C15.5867 19.1 15.4046 18.4113 15.4046 17.499V1.55288ZM33.5067 7.37658H33.7567V7.12658V6.56027C33.7567 4.94541 33.3762 3.57578 32.5576 2.60619C31.7332 1.62966 30.4943 1.09424 28.857 1.09424C27.2361 1.09424 26.0041 1.61377 25.1826 2.58352C24.3671 3.54629 23.987 4.91658 23.987 6.56027C23.987 9.62117 25.8195 11.267 27.566 12.6963C27.6605 12.7737 27.7547 12.8503 27.8481 12.9264C29.5092 14.2794 30.9616 15.4623 30.9616 17.5288C30.9616 18.4393 30.7728 19.1199 30.4192 19.5685C30.0738 20.0066 29.5426 20.2594 28.7675 20.2594C27.9925 20.2594 27.4612 20.0066 27.1159 19.5685C26.7622 19.1199 26.5735 18.4393 26.5735 17.5288V16.2174V15.9674H26.3235H24.1476H23.8976V16.2174V17.4096C23.8976 19.0245 24.2781 20.3944 25.1008 21.3641C25.9293 22.3407 27.1757 22.8756 28.8271 22.8756C30.4785 22.8756 31.7318 22.3408 32.5676 21.365C33.398 20.3956 33.7865 19.0255 33.7865 17.4096C33.7865 14.3483 31.946 12.7024 30.1925 11.2697C30.1005 11.1946 30.0089 11.1201 29.9179 11.0461C28.2465 9.68665 26.7821 8.49551 26.7821 6.41124C26.7821 5.51268 26.9572 4.8391 27.297 4.39472C27.6273 3.9628 28.142 3.71046 28.9166 3.71046C29.691 3.71046 30.2053 3.96269 30.5356 4.39775C30.8757 4.84574 31.051 5.52686 31.051 6.44105V7.12658V7.37658H31.301H33.5067ZM37.8902 22.667H38.1402V22.417V13.2781H42.7668V22.417V22.667H43.0168H45.3417H45.5917V22.417V1.55288V1.30288H45.3417H43.0168H42.7668V1.55288V10.6917H38.1402V1.55288V1.30288H37.8902H35.5654H35.3154V1.55288V22.417V22.667H35.5654H37.8902ZM5.27235 11.1388H3.79361V3.9191H5.80886C6.62516 3.9191 7.14457 4.14931 7.46965 4.55252C7.80415 4.96744 7.97313 5.61353 7.97313 6.53046V8.52746C7.97313 9.6243 7.70624 10.2526 7.27849 10.6174C6.84169 10.99 6.18028 11.1388 5.27235 11.1388Z" fill="#212B36" stroke="#212B36" stroke-width="0.5"/>
<path d="M47.4226 4.76375C47.3162 4.74396 47.2459 4.64164 47.2657 4.53522L47.9212 1.01154C47.941 0.905118 48.0433 0.834895 48.1497 0.854691L59.8824 3.03716C59.9888 3.05695 60.0591 3.15927 60.0393 3.26569L59.348 6.98206L47.4226 4.76375ZM58.6208 10.8911L59.348 6.98206L62.1848 7.50976C62.2912 7.52955 62.3614 7.63187 62.3416 7.73829L61.6862 11.262C61.6664 11.3684 61.5641 11.4386 61.4576 11.4188L58.6208 10.8911ZM58.6208 10.8911L57.9295 14.6075C57.9097 14.7139 57.8074 14.7841 57.701 14.7643L48.8051 13.1096L49.4964 9.3932C49.5162 9.28678 49.6185 9.21655 49.7249 9.23635L58.6208 10.8911ZM45.7397 12.7387C45.7595 12.6323 45.8619 12.5621 45.9683 12.5819L48.8051 13.1096L48.1138 16.8259C48.094 16.9324 48.1642 17.0347 48.2707 17.0545L60.0034 19.2369C60.1098 19.2567 60.18 19.3591 60.1602 19.4655L59.5047 22.9892C59.4849 23.0956 59.3826 23.1658 59.2762 23.146L44.514 20.4C44.4076 20.3802 44.3373 20.2779 44.3571 20.1715L45.7397 12.7387Z" fill="#212B36"/>
<path fill-rule="evenodd" clip-rule="evenodd" d="M46.727 4.43356L47.3825 0.909884C47.4582 0.502966 47.8494 0.234457 48.2563 0.31015L59.989 2.49262C60.3959 2.56831 60.6644 2.95954 60.5888 3.36646L59.9987 6.53873L62.2914 6.96522C62.6983 7.04091 62.9668 7.43214 62.8911 7.83906L62.2357 11.3627C62.16 11.7697 61.7687 12.0382 61.3618 11.9625L59.0691 11.536L58.479 14.7083C58.4033 15.1152 58.0121 15.3837 57.6052 15.308L49.2534 13.7544L48.7287 16.5753L60.11 18.6924C60.5169 18.7681 60.7854 19.1593 60.7097 19.5662L60.0542 23.0899C59.9785 23.4968 59.5873 23.7653 59.1804 23.6897L44.4182 20.9436C44.0112 20.868 43.7427 20.4767 43.8184 20.0698L45.201 12.6371C45.2767 12.2301 45.668 11.9616 46.0749 12.0373L48.3676 12.4638L48.9577 9.29154C49.0334 8.88462 49.4246 8.61611 49.8315 8.69181L58.1833 10.2454L58.708 7.42451L47.3268 5.30741C46.9198 5.23171 46.6513 4.84048 46.727 4.43356ZM47.428 4.76331C47.3215 4.74351 47.2513 4.6412 47.2711 4.53478L47.9266 1.0111C47.9464 0.904676 48.0487 0.834453 48.1551 0.854249L59.8878 3.03672C59.9942 3.05651 60.0644 3.15883 60.0447 3.26525L59.3534 6.98162L47.428 4.76331ZM59.3534 6.98162L58.6262 10.8907L49.7303 9.23591C49.6239 9.21611 49.5216 9.28633 49.5018 9.39275L48.8105 13.1091L45.9737 12.5814C45.8672 12.5616 45.7649 12.6319 45.7451 12.7383L44.3625 20.171C44.3427 20.2774 44.413 20.3798 44.5194 20.3995L59.2816 23.1456C59.388 23.1653 59.4903 23.0951 59.5101 22.9887L60.1656 19.465C60.1854 19.3586 60.1152 19.2563 60.0087 19.2365L48.276 17.054C48.1696 17.0342 48.0994 16.9319 48.1192 16.8255L48.8105 13.1091L57.7064 14.7639C57.8128 14.7837 57.9151 14.7135 57.9349 14.6071L58.6262 10.8907L61.463 11.4184C61.5695 11.4382 61.6718 11.3679 61.6916 11.2615L62.347 7.73785C62.3668 7.63143 62.2966 7.52911 62.1902 7.50931L59.3534 6.98162Z" fill="#F4F6F8"/>
</g>
</svg>
