<svg width="106" height="24" viewBox="0 0 106 24" fill="none" xmlns="http://www.w3.org/2000/svg">
<g opacity="0.75">
<path d="M62.1279 1.31836H61.8779V1.56836V22.4325V22.6825H62.1279H64.4528H64.7028V22.4325V14.4561H66.5094C68.205 14.4561 69.4966 14.0124 70.3608 13.1C71.2225 12.1902 71.6178 10.8577 71.6178 9.16886V6.66517C71.6178 5.05374 71.2612 3.7108 70.4466 2.76849C69.6262 1.81942 68.3779 1.31836 66.6882 1.31836H62.1279ZM81.4747 22.6825H81.7247V22.4325V20.3163V20.0663H81.4747H75.7636V1.56836V1.31836H75.5136H73.1887H72.9387V1.56836V22.4325V22.6825H73.1887H81.4747ZM84.7806 22.6825H84.9873L85.0262 22.4795L85.7921 18.4798H90.6544L91.4203 22.4795L91.4591 22.6825H91.6658H93.9907H94.2931L94.2362 22.3855L90.2422 1.52136L90.2034 1.31836H89.9967H86.6286H86.4219L86.3831 1.52136L82.3891 22.3855L82.3322 22.6825H82.6346H84.7806ZM97.7957 22.4325V22.6825H98.0457H100.341H100.591V22.4325V14.9916L105.019 1.6471L105.128 1.31836H104.782H102.576H102.394L102.338 1.49222L99.2986 10.9974L96.287 1.49284L96.2317 1.31836H96.0487H93.6344H93.2887L93.3969 1.64662L97.7957 14.9913V22.4325ZM66.5094 11.8696H64.7028V3.93458H66.6882C67.4906 3.93458 68.0019 4.15787 68.3228 4.55665C68.6534 4.96751 68.8227 5.61328 68.8227 6.54594V9.31789C68.8227 10.2888 68.6187 10.9127 68.2574 11.2962C67.8994 11.6762 67.3397 11.8696 66.5094 11.8696ZM90.2296 15.9829H86.1856L88.1817 5.51006L90.2296 15.9829Z" fill="white" stroke="white" stroke-width="0.5"/>
<path d="M1.21777 1.30288H0.967773V1.55288V22.417V22.667H1.21777H3.54263H3.79263V22.417V13.755H5.18196C6.12678 13.755 6.80926 13.9383 7.25851 14.3552C7.70402 14.7686 7.97216 15.4612 7.97216 16.6049V19.8835C7.97216 21.3016 8.09294 21.878 8.38165 22.5196L8.44799 22.667H8.60963H10.9643H11.384L11.1841 22.2979C10.8311 21.6462 10.797 20.8447 10.797 19.9133V16.6645C10.797 15.5239 10.6152 14.5293 10.1685 13.7396C9.81538 13.1154 9.30371 12.6317 8.61355 12.307C9.25545 11.9928 9.75251 11.5385 10.1062 10.9427C10.5619 10.1754 10.7672 9.19458 10.7672 8.02076V6.32182C10.7672 4.74062 10.4182 3.4743 9.60444 2.60416C8.78759 1.7307 7.54647 1.30288 5.86749 1.30288H1.21777ZM15.4037 1.55288V1.30288H15.1537H12.8586H12.6086V1.55288V17.3798C12.6086 18.9936 12.9811 20.3773 13.7948 21.3617C14.615 22.3539 15.8544 22.9054 17.5083 22.9054C19.1764 22.9054 20.4233 22.3544 21.2475 21.3622C22.0653 20.3776 22.4378 18.9936 22.4378 17.3798V1.55288V1.30288H22.1878H20.012H19.762V1.55288V17.499C19.762 18.4112 19.58 19.1005 19.232 19.5568C18.8932 20.001 18.3702 20.2594 17.5977 20.2594C16.8089 20.2594 16.2785 20 15.9367 19.5559C15.5857 19.1 15.4037 18.4113 15.4037 17.499V1.55288ZM33.5057 7.37658H33.7557V7.12658V6.56027C33.7557 4.94541 33.3752 3.57578 32.5566 2.60619C31.7322 1.62966 30.4933 1.09424 28.856 1.09424C27.2351 1.09424 26.0031 1.61377 25.1817 2.58352C24.3661 3.54629 23.9861 4.91658 23.9861 6.56027C23.9861 9.62117 25.8185 11.267 27.565 12.6963C27.6596 12.7737 27.7537 12.8503 27.8471 12.9264C29.5082 14.2794 30.9606 15.4623 30.9606 17.5288C30.9606 18.4393 30.7718 19.1199 30.4182 19.5685C30.0728 20.0066 29.5416 20.2594 28.7666 20.2594C27.9915 20.2594 27.4603 20.0066 27.1149 19.5685C26.7613 19.1199 26.5725 18.4393 26.5725 17.5288V16.2174V15.9674H26.3225H24.1466H23.8966V16.2174V17.4096C23.8966 19.0245 24.2771 20.3944 25.0998 21.3641C25.9283 22.3407 27.1747 22.8756 28.8262 22.8756C30.4775 22.8756 31.7308 22.3408 32.5667 21.365C33.3971 20.3956 33.7855 19.0255 33.7855 17.4096C33.7855 14.3483 31.945 12.7024 30.1915 11.2697C30.0995 11.1946 30.0079 11.1201 29.917 11.0461C28.2456 9.68665 26.7811 8.49551 26.7811 6.41124C26.7811 5.51268 26.9562 4.8391 27.296 4.39472C27.6263 3.9628 28.141 3.71046 28.9156 3.71046C29.69 3.71046 30.2044 3.96269 30.5346 4.39775C30.8747 4.84574 31.0501 5.52686 31.0501 6.44105V7.12658V7.37658H31.3001H33.5057ZM37.8893 22.667H38.1393V22.417V13.2781H42.7659V22.417V22.667H43.0159H45.3407H45.5907V22.417V1.55288V1.30288H45.3407H43.0159H42.7659V1.55288V10.6917H38.1393V1.55288V1.30288H37.8893H35.5644H35.3144V1.55288V22.417V22.667H35.5644H37.8893ZM5.27137 11.1388H3.79263V3.9191H5.80788C6.62419 3.9191 7.1436 4.14931 7.46867 4.55252C7.80317 4.96744 7.97216 5.61353 7.97216 6.53046V8.52746C7.97216 9.6243 7.70526 10.2526 7.27751 10.6174C6.84072 10.99 6.1793 11.1388 5.27137 11.1388Z" fill="white" stroke="white" stroke-width="0.5"/>
<path d="M47.4216 4.76375C47.3152 4.74396 47.245 4.64164 47.2648 4.53522L47.9202 1.01154C47.94 0.905118 48.0423 0.834895 48.1487 0.854691L59.8814 3.03716C59.9879 3.05695 60.0581 3.15927 60.0383 3.26569L59.347 6.98206L47.4216 4.76375ZM58.6198 10.8911L59.347 6.98206L62.1838 7.50976C62.2902 7.52955 62.3605 7.63187 62.3407 7.73829L61.6852 11.262C61.6654 11.3684 61.5631 11.4386 61.4567 11.4188L58.6198 10.8911ZM58.6198 10.8911L57.9285 14.6075C57.9087 14.7139 57.8064 14.7841 57.7 14.7643L48.8041 13.1096L49.4954 9.3932C49.5152 9.28678 49.6176 9.21655 49.724 9.23635L58.6198 10.8911ZM45.7388 12.7387C45.7586 12.6323 45.8609 12.5621 45.9673 12.5819L48.8041 13.1096L48.1128 16.8259C48.093 16.9324 48.1633 17.0347 48.2697 17.0545L60.0024 19.2369C60.1088 19.2567 60.179 19.3591 60.1592 19.4655L59.5038 22.9892C59.484 23.0956 59.3816 23.1658 59.2752 23.146L44.513 20.4C44.4066 20.3802 44.3364 20.2779 44.3562 20.1715L45.7388 12.7387Z" fill="white"/>
<path fill-rule="evenodd" clip-rule="evenodd" d="M46.726 4.43381L47.3815 0.910129C47.4572 0.50321 47.8484 0.234701 48.2553 0.310394L59.988 2.49286C60.395 2.56855 60.6635 2.95979 60.5878 3.36671L59.9977 6.53898L62.2904 6.96546C62.6973 7.04115 62.9658 7.43239 62.8902 7.8393L62.2347 11.363C62.159 11.7699 61.7678 12.0384 61.3608 11.9627L59.0681 11.5362L58.478 14.7085C58.4023 15.1154 58.0111 15.3839 57.6042 15.3082L49.2524 13.7547L48.7277 16.5755L60.109 18.6926C60.5159 18.7683 60.7844 19.1596 60.7087 19.5665L60.0533 23.0902C59.9776 23.4971 59.5863 23.7656 59.1794 23.6899L44.4172 20.9439C44.0103 20.8682 43.7418 20.477 43.8175 20.07L45.2001 12.6373C45.2758 12.2304 45.667 11.9619 46.0739 12.0376L48.3666 12.4641L48.9567 9.29179C49.0324 8.88487 49.4237 8.61636 49.8306 8.69205L58.1823 10.2456L58.7071 7.42475L47.3258 5.30765C46.9189 5.23196 46.6503 4.84073 46.726 4.43381ZM47.427 4.76355C47.3206 4.74376 47.2503 4.64144 47.2701 4.53502L47.9256 1.01134C47.9454 0.90492 48.0477 0.834698 48.1541 0.854493L59.8868 3.03696C59.9933 3.05676 60.0635 3.15907 60.0437 3.26549L59.3524 6.98186L47.427 4.76355ZM59.3524 6.98186L58.6252 10.8909L49.7294 9.23615C49.6229 9.21635 49.5206 9.28658 49.5008 9.393L48.8095 13.1094L45.9727 12.5817C45.8663 12.5619 45.764 12.6321 45.7442 12.7385L44.3616 20.1713C44.3418 20.2777 44.412 20.38 44.5184 20.3998L59.2806 23.1458C59.387 23.1656 59.4894 23.0954 59.5092 22.989L60.1646 19.4653C60.1844 19.3589 60.1142 19.2565 60.0078 19.2367L48.2751 17.0543C48.1686 17.0345 48.0984 16.9322 48.1182 16.8257L48.8095 13.1094L57.7054 14.7641C57.8118 14.7839 57.9141 14.7137 57.9339 14.6073L58.6252 10.8909L61.4621 11.4186C61.5685 11.4384 61.6708 11.3682 61.6906 11.2618L62.3461 7.73809C62.3658 7.63167 62.2956 7.52935 62.1892 7.50956L59.3524 6.98186Z" fill="#F4F6F8"/>
</g>
</svg>
