<svg width="130" height="130" viewBox="0 0 130 130" fill="none" xmlns="http://www.w3.org/2000/svg">
<rect width="130" height="130" rx="10" fill="white"/>
<path d="M122.778 17.2227C122.778 11.6998 118.301 7.22266 112.778 7.22266H17.2227C11.6998 7.22266 7.22266 11.6998 7.22266 17.2226V112.778C7.22266 118.301 11.6998 122.778 17.2226 122.778H112.778C118.301 122.778 122.778 118.301 122.778 112.778V17.2227Z" fill="white"/>
<path d="M11.8449 7.91599V7.91599C9.67501 7.91599 7.91599 9.67501 7.91599 11.8449V11.8449H11.8449V7.91599Z" fill="black"/>
<path d="M15.7738 7.91599H11.8449V11.8449H15.7738V7.91599Z" fill="black"/>
<path d="M19.7027 7.91599H15.7738V11.8449H19.7027V7.91599Z" fill="black"/>
<path d="M23.6315 7.91599H19.7027V11.8449H23.6315V7.91599Z" fill="black"/>
<path d="M27.5604 7.91599H23.6315V11.8449H27.5604V7.91599Z" fill="black"/>
<path d="M31.4893 7.91599H27.5604V11.8449H31.4893V7.91599Z" fill="black"/>
<path d="M35.4182 11.8449C35.4182 9.67501 33.6592 7.91599 31.4893 7.91599V7.91599V11.8449H35.4182V11.8449Z" fill="black"/>
<path d="M51.1338 9.88043C51.1338 8.7955 50.2543 7.91599 49.1693 7.91599V7.91599C48.0844 7.91599 47.2049 8.7955 47.2049 9.88043V11.8449H49.1693C50.2543 11.8449 51.1338 10.9654 51.1338 9.88043V9.88043Z" fill="black"/>
<path d="M62.9204 7.91599V7.91599C60.7506 7.91599 58.9915 9.67501 58.9915 11.8449V11.8449H62.9204V7.91599Z" fill="black"/>
<path d="M66.8493 11.8449C66.8493 9.67501 65.0903 7.91599 62.9204 7.91599V7.91599V11.8449H66.8493V11.8449Z" fill="black"/>
<path d="M74.7071 9.88044C74.7071 8.7955 73.8276 7.91599 72.7427 7.91599V7.91599C71.6577 7.91599 70.7782 8.7955 70.7782 9.88044V11.8449H74.7071V9.88044Z" fill="black"/>
<path d="M98.2804 7.91599V7.91599C96.1106 7.91599 94.3515 9.67501 94.3515 11.8449V11.8449H98.2804V7.91599Z" fill="black"/>
<path d="M102.209 7.91599H98.2804V11.8449H102.209V7.91599Z" fill="black"/>
<path d="M106.138 7.91599H102.209V11.8449H106.138V7.91599Z" fill="black"/>
<path d="M110.067 7.91599H106.138V11.8449H110.067V7.91599Z" fill="black"/>
<path d="M113.996 7.91599H110.067V11.8449H113.996V7.91599Z" fill="black"/>
<path d="M117.925 7.91599H113.996V11.8449H117.925V7.91599Z" fill="black"/>
<path d="M121.854 11.8449C121.854 9.67501 120.095 7.91599 117.925 7.91599V7.91599V11.8449H121.854V11.8449Z" fill="black"/>
<path d="M11.8449 11.8449H7.91599V15.7738H11.8449V11.8449Z" fill="black"/>
<path d="M35.4182 11.8449H31.4893V15.7738H35.4182V11.8449Z" fill="black"/>
<path d="M43.276 11.8449H41.3115C40.2266 11.8449 39.3471 12.7244 39.3471 13.8093V13.8093C39.3471 14.8943 40.2266 15.7738 41.3115 15.7738H43.276V11.8449Z" fill="black"/>
<path d="M47.2049 11.8449H43.276V15.7738H47.2049L47.2049 11.8449Z" fill="black"/>
<path d="M62.9204 11.8449H58.9915V15.7738V15.7738C61.1614 15.7738 62.9204 14.0147 62.9204 11.8449V11.8449Z" fill="black"/>
<path d="M70.7782 11.8449H66.8493L66.8493 13.8093C66.8493 14.8943 67.7288 15.7738 68.8138 15.7738V15.7738C69.8987 15.7738 70.7782 14.8943 70.7782 13.8093V11.8449Z" fill="black"/>
<path d="M78.636 13.8093C78.636 12.7244 77.7565 11.8449 76.6715 11.8449H74.7071V13.8093C74.7071 14.8943 75.5866 15.7738 76.6715 15.7738V15.7738C77.7565 15.7738 78.636 14.8943 78.636 13.8093V13.8093Z" fill="black"/>
<path d="M86.4938 11.8449V11.8449C84.3239 11.8449 82.5649 13.6039 82.5649 15.7738V15.7738H86.4938V11.8449Z" fill="black"/>
<path d="M90.4227 15.7738C90.4227 13.6039 88.6636 11.8449 86.4938 11.8449V11.8449V15.7738H90.4227V15.7738Z" fill="black"/>
<path d="M98.2804 11.8449H94.3515V15.7738H98.2804V11.8449Z" fill="black"/>
<path d="M121.854 11.8449H117.925V15.7738H121.854V11.8449Z" fill="black"/>
<path d="M11.8449 15.7738H7.91599V19.7027H11.8449V15.7738Z" fill="black"/>
<path d="M19.7027 15.7738V15.7738C17.5328 15.7738 15.7738 17.5328 15.7738 19.7027V19.7027H19.7027V15.7738Z" fill="black"/>
<path d="M23.6315 15.7738H19.7027V19.7027H23.6315V15.7738Z" fill="black"/>
<path d="M27.5604 19.7027C27.5604 17.5328 25.8014 15.7738 23.6315 15.7738V15.7738V19.7027H27.5604V19.7027Z" fill="black"/>
<path d="M35.4182 15.7738H31.4893V19.7027H35.4182V15.7738Z" fill="black"/>
<path d="M51.1338 15.7738H47.2049L47.2049 19.7027H51.1338V15.7738Z" fill="black"/>
<path d="M55.0627 15.7738H51.1338V19.7027H55.0627V15.7738Z" fill="black"/>
<path d="M58.9915 15.7738H55.0627V19.7027V19.7027C57.2325 19.7027 58.9915 17.9436 58.9915 15.7738V15.7738Z" fill="black"/>
<path d="M86.4938 15.7738H82.5649V19.7027H86.4938V15.7738Z" fill="black"/>
<path d="M90.4227 15.7738H86.4938V19.7027H90.4227V15.7738Z" fill="black"/>
<path d="M98.2804 15.7738H94.3515V19.7027H98.2804V15.7738Z" fill="black"/>
<path d="M106.138 15.7738V15.7738C103.968 15.7738 102.209 17.5328 102.209 19.7027V19.7027H106.138V15.7738Z" fill="black"/>
<path d="M110.067 15.7738H106.138V19.7027H110.067V15.7738Z" fill="black"/>
<path d="M113.996 19.7027C113.996 17.5328 112.237 15.7738 110.067 15.7738V15.7738V19.7027H113.996V19.7027Z" fill="black"/>
<path d="M121.854 15.7738H117.925V19.7027H121.854V15.7738Z" fill="black"/>
<path d="M11.8449 19.7027H7.91599V23.6315H11.8449V19.7027Z" fill="black"/>
<path d="M19.7027 19.7027H15.7738V23.6315H19.7027V19.7027Z" fill="black"/>
<path d="M23.6315 19.7027H19.7027V23.6315H23.6315V19.7027Z" fill="black"/>
<path d="M27.5604 19.7027H23.6315V23.6315H27.5604V19.7027Z" fill="black"/>
<path d="M35.4182 19.7027H31.4893V23.6315H35.4182V19.7027Z" fill="black"/>
<path d="M51.1338 19.7027H47.2049V23.6315V23.6315C49.3747 23.6315 51.1338 21.8725 51.1338 19.7027V19.7027Z" fill="black"/>
<path d="M66.8493 21.6671C66.8493 20.5822 65.9698 19.7027 64.8849 19.7027V19.7027C63.7999 19.7027 62.9204 20.5822 62.9204 21.6671V21.6671C62.9204 22.752 63.7999 23.6315 64.8849 23.6315H66.8493V21.6671Z" fill="black"/>
<path d="M82.5649 19.7027H80.6004C79.5155 19.7027 78.636 20.5822 78.636 21.6671V21.6671C78.636 22.752 79.5155 23.6315 80.6004 23.6315V23.6315C81.6854 23.6315 82.5649 22.752 82.5649 21.6671V19.7027Z" fill="black"/>
<path d="M90.4227 19.7027H86.4938V23.6315H90.4227V19.7027Z" fill="black"/>
<path d="M98.2804 19.7027H94.3515V23.6315H98.2804V19.7027Z" fill="black"/>
<path d="M106.138 19.7027H102.209V23.6315H106.138V19.7027Z" fill="black"/>
<path d="M110.067 19.7027H106.138V23.6315H110.067V19.7027Z" fill="black"/>
<path d="M113.996 19.7027H110.067V23.6315H113.996V19.7027Z" fill="black"/>
<path d="M121.854 19.7027H117.925V23.6315H121.854V19.7027Z" fill="black"/>
<path d="M11.8449 23.6315H7.91599V27.5604H11.8449V23.6315Z" fill="black"/>
<path d="M19.7027 23.6315H15.7738V23.6315C15.7738 25.8014 17.5328 27.5604 19.7027 27.5604V27.5604V23.6315Z" fill="black"/>
<path d="M23.6315 23.6315H19.7027V27.5604H23.6315V23.6315Z" fill="black"/>
<path d="M27.5604 23.6315H23.6315V27.5604V27.5604C25.8014 27.5604 27.5604 25.8014 27.5604 23.6315V23.6315Z" fill="black"/>
<path d="M35.4182 23.6315H31.4893V27.5604H35.4182V23.6315Z" fill="black"/>
<path d="M47.2049 23.6315V23.6315C45.035 23.6315 43.276 25.3906 43.276 27.5604V27.5604H47.2049L47.2049 23.6315Z" fill="black"/>
<path d="M70.7782 27.5604C70.7782 25.3906 69.0192 23.6315 66.8493 23.6315V23.6315L66.8493 27.5604H70.7782V27.5604Z" fill="black"/>
<path d="M90.4227 23.6315H86.4938V27.5604H90.4227V23.6315Z" fill="black"/>
<path d="M98.2804 23.6315H94.3515V27.5604H98.2804V23.6315Z" fill="black"/>
<path d="M106.138 23.6315H102.209V23.6315C102.209 25.8014 103.968 27.5604 106.138 27.5604V27.5604V23.6315Z" fill="black"/>
<path d="M110.067 23.6315H106.138V27.5604H110.067V23.6315Z" fill="black"/>
<path d="M113.996 23.6315H110.067V27.5604V27.5604C112.237 27.5604 113.996 25.8014 113.996 23.6315V23.6315Z" fill="black"/>
<path d="M121.854 23.6315H117.925V27.5604H121.854V23.6315Z" fill="black"/>
<path d="M11.8449 27.5604H7.91599V31.4893H11.8449V27.5604Z" fill="black"/>
<path d="M35.4182 27.5604H31.4893V31.4893H35.4182V27.5604Z" fill="black"/>
<path d="M43.276 27.5604V27.5604C41.1061 27.5604 39.3471 29.3195 39.3471 31.4893V31.4893H43.276V27.5604Z" fill="black"/>
<path d="M47.2049 27.5604H43.276V31.4893H47.2049V27.5604Z" fill="black"/>
<path d="M58.9915 27.5604V27.5604C56.8217 27.5604 55.0627 29.3195 55.0627 31.4893V31.4893H58.9915V27.5604Z" fill="black"/>
<path d="M62.9204 31.4893C62.9204 29.3195 61.1614 27.5604 58.9915 27.5604V27.5604V31.4893H62.9204V31.4893Z" fill="black"/>
<path d="M70.7782 27.5604H66.8493V31.4893H70.7782V27.5604Z" fill="black"/>
<path d="M74.7071 31.4893C74.7071 29.3195 72.9481 27.5604 70.7782 27.5604V27.5604V31.4893H74.7071V31.4893Z" fill="black"/>
<path d="M82.5649 27.5604V27.5604C80.395 27.5604 78.636 29.3195 78.636 31.4893V31.4893H82.5649V27.5604Z" fill="black"/>
<path d="M86.4938 27.5604H82.5649V31.4893H86.4938V27.5604Z" fill="black"/>
<path d="M90.4227 27.5604H86.4938V31.4893H90.4227V27.5604Z" fill="black"/>
<path d="M98.2804 27.5604H94.3515V31.4893H98.2804V27.5604Z" fill="black"/>
<path d="M121.854 27.5604H117.925V31.4893H121.854V27.5604Z" fill="black"/>
<path d="M11.8449 31.4893H7.91599V31.4893C7.91599 33.6592 9.67501 35.4182 11.8449 35.4182V35.4182V31.4893Z" fill="black"/>
<path d="M15.7738 31.4893H11.8449V35.4182H15.7738V31.4893Z" fill="black"/>
<path d="M19.7027 31.4893H15.7738V35.4182H19.7027V31.4893Z" fill="black"/>
<path d="M23.6315 31.4893H19.7027V35.4182H23.6315V31.4893Z" fill="black"/>
<path d="M27.5604 31.4893H23.6315V35.4182H27.5604V31.4893Z" fill="black"/>
<path d="M31.4893 31.4893H27.5604V35.4182H31.4893V31.4893Z" fill="black"/>
<path d="M35.4182 31.4893H31.4893V35.4182V35.4182C33.6592 35.4182 35.4182 33.6592 35.4182 31.4893V31.4893Z" fill="black"/>
<path d="M43.276 31.4893H39.3471V35.4182H43.276V31.4893Z" fill="black"/>
<path d="M51.1338 35.4182C51.1338 33.2483 49.3747 31.4893 47.2049 31.4893V31.4893L47.2049 35.4182H51.1338V35.4182Z" fill="black"/>
<path d="M58.9915 31.4893H55.0627V35.4182H58.9915V31.4893Z" fill="black"/>
<path d="M66.8493 31.4893H62.9204V33.4538C62.9204 34.5387 63.7999 35.4182 64.8849 35.4182V35.4182C65.9698 35.4182 66.8493 34.5387 66.8493 33.4538L66.8493 31.4893Z" fill="black"/>
<path d="M74.7071 31.4893H70.7782V31.4893C70.7782 33.6592 72.5372 35.4182 74.7071 35.4182V35.4182V31.4893Z" fill="black"/>
<path d="M82.5649 31.4893H78.636V35.4182H82.5649V31.4893Z" fill="black"/>
<path d="M90.4227 31.4893H86.4938V35.4182H90.4227V31.4893Z" fill="black"/>
<path d="M98.2804 31.4893H94.3515V31.4893C94.3515 33.6592 96.1106 35.4182 98.2804 35.4182V35.4182V31.4893Z" fill="black"/>
<path d="M102.209 31.4893H98.2804V35.4182H102.209V31.4893Z" fill="black"/>
<path d="M106.138 31.4893H102.209V35.4182H106.138V31.4893Z" fill="black"/>
<path d="M110.067 31.4893H106.138V35.4182H110.067V31.4893Z" fill="black"/>
<path d="M113.996 31.4893H110.067V35.4182H113.996V31.4893Z" fill="black"/>
<path d="M117.925 31.4893H113.996V35.4182H117.925V31.4893Z" fill="black"/>
<path d="M121.854 31.4893H117.925V35.4182V35.4182C120.095 35.4182 121.854 33.6592 121.854 31.4893V31.4893Z" fill="black"/>
<path d="M43.276 35.4182H39.3471V39.3471V39.3471C41.517 39.3471 43.276 37.5881 43.276 35.4182V35.4182Z" fill="black"/>
<path d="M51.1338 35.4182H47.2049V39.3471H51.1338V35.4182Z" fill="black"/>
<path d="M55.0627 35.4182H51.1338V39.3471H55.0627V35.4182Z" fill="black"/>
<path d="M58.9915 35.4182H55.0627V39.3471H58.9915V35.4182Z" fill="black"/>
<path d="M78.636 35.4182H74.7071V39.3471H78.636L78.636 35.4182Z" fill="black"/>
<path d="M86.4938 35.4182H82.5649V39.3471H86.4938V35.4182Z" fill="black"/>
<path d="M90.4227 35.4182H86.4938V39.3471H90.4227V35.4182Z" fill="black"/>
<path d="M27.5604 39.3471V39.3471C25.3906 39.3471 23.6315 41.1061 23.6315 43.276V43.276H27.5604V39.3471Z" fill="black"/>
<path d="M31.4893 39.3471H27.5604V43.276H31.4893V39.3471Z" fill="black"/>
<path d="M35.4182 39.3471H31.4893V43.276H35.4182V39.3471Z" fill="black"/>
<path d="M39.3471 39.3471H35.4182V43.276V43.276C37.5881 43.276 39.3471 41.517 39.3471 39.3471V39.3471Z" fill="black"/>
<path d="M51.1338 39.3471H47.2049V43.276H51.1338V39.3471Z" fill="black"/>
<path d="M62.9204 43.276C62.9204 41.1061 61.1614 39.3471 58.9915 39.3471V39.3471V39.3471C58.9915 41.517 60.7506 43.276 62.9204 43.276V43.276V43.276Z" fill="black"/>
<path d="M70.7782 39.3471V39.3471C68.6083 39.3471 66.8493 41.1061 66.8493 43.276V43.276H70.7782V39.3471Z" fill="black"/>
<path d="M74.7071 39.3471H70.7782V43.276H74.7071V39.3471Z" fill="black"/>
<path d="M82.5649 39.3471H78.636L78.636 43.276H82.5649V39.3471Z" fill="black"/>
<path d="M86.4938 39.3471H82.5649V43.276H86.4938V39.3471Z" fill="black"/>
<path d="M90.4227 39.3471H86.4938V43.276V43.276C88.6636 43.276 90.4227 41.517 90.4227 39.3471V39.3471Z" fill="black"/>
<path d="M98.2804 39.3471V39.3471C96.1106 39.3471 94.3515 41.1061 94.3515 43.276V43.276H98.2804V39.3471Z" fill="black"/>
<path d="M102.209 43.276C102.209 41.1061 100.45 39.3471 98.2804 39.3471V39.3471V43.276H102.209V43.276Z" fill="black"/>
<path d="M117.925 41.3115C117.925 40.2266 117.045 39.3471 115.96 39.3471V39.3471C114.875 39.3471 113.996 40.2266 113.996 41.3115V43.276H117.925V41.3115Z" fill="black"/>
<path d="M11.8449 45.2404C11.8449 44.1555 10.9654 43.276 9.88043 43.276V43.276C8.7955 43.276 7.91599 44.1555 7.91599 45.2404V45.2404C7.91599 46.3254 8.7955 47.2049 9.88043 47.2049V47.2049C10.9654 47.2049 11.8449 46.3254 11.8449 45.2404V45.2404Z" fill="black"/>
<path d="M19.7027 43.276V43.276C17.5328 43.276 15.7738 45.035 15.7738 47.2049V47.2049H19.7027V43.276Z" fill="black"/>
<path d="M23.6315 43.276H19.7027V47.2049H23.6315L23.6315 43.276Z" fill="black"/>
<path d="M27.5604 43.276H23.6315L23.6315 47.2049H27.5604V43.276Z" fill="black"/>
<path d="M31.4893 43.276H27.5604V47.2049H31.4893V43.276Z" fill="black"/>
<path d="M47.2049 43.276H45.2404C44.1555 43.276 43.276 44.1555 43.276 45.2404V45.2404C43.276 46.3254 44.1555 47.2049 45.2404 47.2049H47.2049L47.2049 43.276Z" fill="black"/>
<path d="M51.1338 43.276H47.2049L47.2049 47.2049H51.1338V43.276Z" fill="black"/>
<path d="M66.8493 43.276H62.9204V47.2049H66.8493L66.8493 43.276Z" fill="black"/>
<path d="M78.636 43.276H74.7071V47.2049H78.636L78.636 43.276Z" fill="black"/>
<path d="M82.5649 43.276H78.636L78.636 47.2049V47.2049C80.8059 47.2049 82.5649 45.4459 82.5649 43.276V43.276Z" fill="black"/>
<path d="M98.2804 43.276H94.3515V47.2049H98.2804V43.276Z" fill="black"/>
<path d="M106.138 43.276H102.209V47.2049H106.138V43.276Z" fill="black"/>
<path d="M110.067 43.276H106.138V47.2049H110.067V43.276Z" fill="black"/>
<path d="M113.996 43.276H110.067V47.2049H113.996V43.276Z" fill="black"/>
<path d="M121.854 47.2049C121.854 45.035 120.095 43.276 117.925 43.276V43.276V47.2049H121.854V47.2049Z" fill="black"/>
<path d="M19.7027 47.2049H15.7738V47.2049C15.7738 49.3747 17.5328 51.1338 19.7027 51.1338V51.1338V47.2049Z" fill="black"/>
<path d="M23.6315 47.2049H19.7027V51.1338H23.6315V47.2049Z" fill="black"/>
<path d="M35.4182 47.2049L31.4893 47.2049V51.1338H35.4182V47.2049Z" fill="black"/>
<path d="M39.3471 49.1693C39.3471 48.0844 38.4676 47.2049 37.3827 47.2049H35.4182V51.1338H37.3827C38.4676 51.1338 39.3471 50.2543 39.3471 49.1693V49.1693Z" fill="black"/>
<path d="M55.0627 51.1338C55.0627 48.9639 53.3036 47.2049 51.1338 47.2049V47.2049V51.1338H55.0627V51.1338Z" fill="black"/>
<path d="M62.9204 47.2049V47.2049C60.7506 47.2049 58.9915 48.9639 58.9915 51.1338V51.1338H62.9204V47.2049Z" fill="black"/>
<path d="M66.8493 47.2049H62.9204V51.1338H66.8493V47.2049Z" fill="black"/>
<path d="M70.7782 47.2049L66.8493 47.2049V51.1338H70.7782V47.2049Z" fill="black"/>
<path d="M74.7071 47.2049L70.7782 47.2049V51.1338H74.7071V47.2049Z" fill="black"/>
<path d="M78.636 47.2049H74.7071V51.1338H78.636V47.2049Z" fill="black"/>
<path d="M90.4227 49.1693C90.4227 48.0844 89.5431 47.2049 88.4582 47.2049V47.2049C87.3733 47.2049 86.4938 48.0844 86.4938 49.1693V51.1338H90.4227V49.1693Z" fill="black"/>
<path d="M98.2804 47.2049H94.3515V49.1693C94.3515 50.2543 95.2311 51.1338 96.316 51.1338V51.1338C97.4009 51.1338 98.2804 50.2543 98.2804 49.1693V47.2049Z" fill="black"/>
<path d="M106.138 47.2049H102.209V47.2049C102.209 49.3747 103.968 51.1338 106.138 51.1338V51.1338V47.2049Z" fill="black"/>
<path d="M113.996 47.2049H110.067L110.067 51.1338H113.996V47.2049Z" fill="black"/>
<path d="M121.854 47.2049H117.925V51.1338H121.854V47.2049Z" fill="black"/>
<path d="M11.8449 53.0982C11.8449 52.0133 10.9654 51.1338 9.88043 51.1338V51.1338C8.7955 51.1338 7.91599 52.0133 7.91599 53.0982V55.0627H11.8449V53.0982Z" fill="black"/>
<path d="M23.6315 51.1338H19.7027V51.1338C19.7027 53.3036 21.4617 55.0627 23.6315 55.0627V55.0627V51.1338Z" fill="black"/>
<path d="M27.5604 51.1338H23.6315V55.0627H27.5604V51.1338Z" fill="black"/>
<path d="M31.4893 51.1338H27.5604V55.0627H31.4893V51.1338Z" fill="black"/>
<path d="M47.2049 51.1338V51.1338C45.035 51.1338 43.276 52.8928 43.276 55.0627V55.0627H47.2049V51.1338Z" fill="black"/>
<path d="M51.1338 51.1338H47.2049V55.0627V55.0627C49.3747 55.0627 51.1338 53.3036 51.1338 51.1338V51.1338Z" fill="black"/>
<path d="M58.9915 51.1338H55.0627V55.0627H58.9915V51.1338Z" fill="black"/>
<path d="M62.9204 51.1338H58.9915V55.0627H62.9204V51.1338Z" fill="black"/>
<path d="M66.8493 51.1338H62.9204V55.0627H66.8493V51.1338Z" fill="black"/>
<path d="M70.7782 51.1338H66.8493V55.0627H70.7782V51.1338Z" fill="black"/>
<path d="M74.7071 51.1338H70.7782V55.0627H74.7071V51.1338Z" fill="black"/>
<path d="M78.636 51.1338H74.7071V55.0627H78.636V51.1338Z" fill="black"/>
<path d="M82.5649 51.1338H78.636V55.0627H82.5649V51.1338Z" fill="black"/>
<path d="M86.4938 51.1338H82.5649V55.0627H86.4938V51.1338Z" fill="black"/>
<path d="M90.4227 51.1338H86.4938V55.0627V55.0627C88.6636 55.0627 90.4227 53.3036 90.4227 51.1338V51.1338Z" fill="black"/>
<path d="M110.067 51.1338H106.138V55.0627H110.067L110.067 51.1338Z" fill="black"/>
<path d="M113.996 51.1338H110.067L110.067 55.0627H113.996V51.1338Z" fill="black"/>
<path d="M121.854 51.1338H117.925V53.0982C117.925 54.1831 118.804 55.0627 119.889 55.0627V55.0627C120.974 55.0627 121.854 54.1831 121.854 53.0982V51.1338Z" fill="black"/>
<path d="M11.8449 55.0627H7.91599V55.0627C7.91599 57.2325 9.67501 58.9915 11.8449 58.9915V58.9915V55.0627Z" fill="black"/>
<path d="M15.7738 58.9915C15.7738 56.8217 14.0147 55.0627 11.8449 55.0627V55.0627V58.9915H15.7738V58.9915Z" fill="black"/>
<path d="M27.5604 55.0627H23.6315L23.6315 58.9915H27.5604V55.0627Z" fill="black"/>
<path d="M35.4182 55.0627H31.4893V55.0627C31.4893 57.2325 33.2483 58.9915 35.4182 58.9915V58.9915V55.0627Z" fill="black"/>
<path d="M39.3471 55.0627H35.4182V58.9915H39.3471V55.0627Z" fill="black"/>
<path d="M43.276 55.0627H39.3471V58.9915H43.276V55.0627Z" fill="black"/>
<path d="M58.9915 55.0627H55.0627V55.0627C55.0627 57.2325 56.8217 58.9915 58.9915 58.9915V58.9915V55.0627Z" fill="black"/>
<path d="M62.9204 55.0627H58.9915V58.9915H62.9204V55.0627Z" fill="black"/>
<path d="M70.7782 55.0627H66.8493L66.8493 58.9915H70.7782V55.0627Z" fill="black"/>
<path d="M78.636 55.0627H74.7071V58.9915H78.636V55.0627Z" fill="black"/>
<path d="M86.4938 55.0627H82.5649V58.9915V58.9915C84.7347 58.9915 86.4938 57.2325 86.4938 55.0627V55.0627Z" fill="black"/>
<path d="M106.138 55.0627V55.0627C103.968 55.0627 102.209 56.8217 102.209 58.9915V58.9915H106.138V55.0627Z" fill="black"/>
<path d="M113.996 55.0627H110.067L110.067 58.9915H113.996V55.0627Z" fill="black"/>
<path d="M15.7738 58.9915H11.8449V62.9204H15.7738V58.9915Z" fill="black"/>
<path d="M23.6315 58.9915V58.9915C21.4617 58.9915 19.7027 60.7506 19.7027 62.9204V62.9204H23.6315L23.6315 58.9915Z" fill="black"/>
<path d="M27.5604 58.9915H23.6315L23.6315 62.9204V62.9204C25.8014 62.9204 27.5604 61.1614 27.5604 58.9915V58.9915Z" fill="black"/>
<path d="M43.276 58.9915H39.3471V62.9204V62.9204C41.517 62.9204 43.276 61.1614 43.276 58.9915V58.9915Z" fill="black"/>
<path d="M51.1338 60.956C51.1338 59.8711 50.2543 58.9915 49.1693 58.9915V58.9915C48.0844 58.9915 47.2049 59.8711 47.2049 60.956V62.9204H51.1338V60.956Z" fill="black"/>
<path d="M62.9204 58.9915H58.9915V62.9204H62.9204V58.9915Z" fill="black"/>
<path d="M70.7782 58.9915H66.8493V62.9204H70.7782V58.9915Z" fill="black"/>
<path d="M74.7071 58.9915H70.7782V62.9204H74.7071V58.9915Z" fill="black"/>
<path d="M78.636 58.9915H74.7071V62.9204H78.636V58.9915Z" fill="black"/>
<path d="M82.5649 58.9915H78.636V62.9204H82.5649V58.9915Z" fill="black"/>
<path d="M94.3515 58.9915H92.3871C91.3022 58.9915 90.4227 59.8711 90.4227 60.956V60.956C90.4227 62.0409 91.3022 62.9204 92.3871 62.9204H94.3515V58.9915Z" fill="black"/>
<path d="M98.2804 62.9204C98.2804 60.7506 96.5214 58.9915 94.3515 58.9915V58.9915V62.9204H98.2804V62.9204Z" fill="black"/>
<path d="M106.138 58.9915H102.209V62.9204H106.138V58.9915Z" fill="black"/>
<path d="M113.996 58.9915H110.067V62.9204H113.996V58.9915Z" fill="black"/>
<path d="M117.925 62.9204C117.925 60.7506 116.166 58.9915 113.996 58.9915V58.9915V62.9204H117.925V62.9204Z" fill="black"/>
<path d="M11.8449 62.9204H9.88044C8.7955 62.9204 7.91599 63.7999 7.91599 64.8849V64.8849C7.91599 65.9698 8.7955 66.8493 9.88044 66.8493H11.8449V62.9204Z" fill="black"/>
<path d="M19.7027 62.9204H15.7738V66.8493H19.7027V62.9204Z" fill="black"/>
<path d="M23.6315 62.9204H19.7027V66.8493V66.8493C21.8725 66.8493 23.6315 65.0903 23.6315 62.9204V62.9204Z" fill="black"/>
<path d="M35.4182 62.9204V62.9204C33.2483 62.9204 31.4893 64.6795 31.4893 66.8493V66.8493H35.4182V62.9204Z" fill="black"/>
<path d="M39.3471 62.9204H35.4182V66.8493H39.3471V62.9204Z" fill="black"/>
<path d="M51.1338 62.9204H47.2049V66.8493H51.1338V62.9204Z" fill="black"/>
<path d="M62.9204 62.9204H58.9915V62.9204C58.9915 65.0903 60.7506 66.8493 62.9204 66.8493V66.8493V62.9204Z" fill="black"/>
<path d="M66.8493 62.9204H62.9204V66.8493V66.8493C65.0903 66.8493 66.8493 65.0903 66.8493 62.9204V62.9204Z" fill="black"/>
<path d="M74.7071 62.9204H70.7782V62.9204C70.7782 65.0903 72.5372 66.8493 74.7071 66.8493V66.8493V62.9204Z" fill="black"/>
<path d="M78.636 62.9204H74.7071V66.8493H78.636V62.9204Z" fill="black"/>
<path d="M86.4938 66.8493C86.4938 64.6795 84.7347 62.9204 82.5649 62.9204V62.9204V66.8493H86.4938V66.8493Z" fill="black"/>
<path d="M98.2804 62.9204H94.3515V64.8849C94.3515 65.9698 95.2311 66.8493 96.316 66.8493V66.8493C97.4009 66.8493 98.2804 65.9698 98.2804 64.8849V62.9204Z" fill="black"/>
<path d="M106.138 62.9204H102.209V64.8849C102.209 65.9698 103.089 66.8493 104.174 66.8493V66.8493C105.259 66.8493 106.138 65.9698 106.138 64.8849V62.9204Z" fill="black"/>
<path d="M113.996 62.9204H110.067V66.8493H113.996V62.9204Z" fill="black"/>
<path d="M121.854 64.8849C121.854 63.7999 120.974 62.9204 119.889 62.9204H117.925V66.8493H119.889C120.974 66.8493 121.854 65.9698 121.854 64.8849V64.8849Z" fill="black"/>
<path d="M15.7738 66.8493H11.8449V70.7782H15.7738V66.8493Z" fill="black"/>
<path d="M19.7027 66.8493H15.7738V70.7782H19.7027V66.8493Z" fill="black"/>
<path d="M31.4893 66.8493V66.8493C29.3195 66.8493 27.5604 68.6083 27.5604 70.7782V70.7782H31.4893V66.8493Z" fill="black"/>
<path d="M39.3471 66.8493H35.4182L35.4182 70.7782H39.3471V66.8493Z" fill="black"/>
<path d="M43.276 66.8493L39.3471 66.8493V70.7782H43.276V66.8493Z" fill="black"/>
<path d="M47.2049 66.8493L43.276 66.8493V70.7782H47.2049L47.2049 66.8493Z" fill="black"/>
<path d="M51.1338 66.8493H47.2049L47.2049 70.7782H51.1338V66.8493Z" fill="black"/>
<path d="M55.0627 70.7782C55.0627 68.6083 53.3036 66.8493 51.1338 66.8493V66.8493V70.7782H55.0627V70.7782Z" fill="black"/>
<path d="M82.5649 66.8493H78.636L78.636 70.7782H82.5649V66.8493Z" fill="black"/>
<path d="M86.4938 66.8493H82.5649V70.7782H86.4938V66.8493Z" fill="black"/>
<path d="M113.996 66.8493H110.067V70.7782H113.996V66.8493Z" fill="black"/>
<path d="M117.925 66.8493H113.996V70.7782H117.925V66.8493Z" fill="black"/>
<path d="M11.8449 70.7782V70.7782C9.67501 70.7782 7.91599 72.5372 7.91599 74.7071V74.7071H11.8449V70.7782Z" fill="black"/>
<path d="M15.7738 70.7782H11.8449V74.7071H15.7738V70.7782Z" fill="black"/>
<path d="M19.7027 70.7782H15.7738V74.7071H19.7027V70.7782Z" fill="black"/>
<path d="M23.6315 74.7071C23.6315 72.5372 21.8725 70.7782 19.7027 70.7782V70.7782V74.7071H23.6315V74.7071Z" fill="black"/>
<path d="M31.4893 70.7782H27.5604V74.7071H31.4893V70.7782Z" fill="black"/>
<path d="M35.4182 70.7782H31.4893V74.7071V74.7071C33.6592 74.7071 35.4182 72.9481 35.4182 70.7782V70.7782Z" fill="black"/>
<path d="M51.1338 70.7782H47.2049V70.7782C47.2049 72.9481 48.9639 74.7071 51.1338 74.7071V74.7071V70.7782Z" fill="black"/>
<path d="M58.9915 72.7427C58.9915 71.6577 58.112 70.7782 57.0271 70.7782H55.0627V74.7071H57.0271C58.112 74.7071 58.9915 73.8276 58.9915 72.7427V72.7427Z" fill="black"/>
<path d="M74.7071 70.7782H72.7427C71.6577 70.7782 70.7782 71.6577 70.7782 72.7427V72.7427C70.7782 73.8276 71.6577 74.7071 72.7427 74.7071H74.7071V70.7782Z" fill="black"/>
<path d="M78.636 70.7782H74.7071V74.7071H78.636L78.636 70.7782Z" fill="black"/>
<path d="M82.5649 70.7782H78.636L78.636 74.7071H82.5649V70.7782Z" fill="black"/>
<path d="M86.4938 70.7782H82.5649V74.7071H86.4938V70.7782Z" fill="black"/>
<path d="M94.3515 72.7427C94.3515 71.6577 93.472 70.7782 92.3871 70.7782V70.7782C91.3022 70.7782 90.4227 71.6577 90.4227 72.7427V74.7071H94.3515V72.7427Z" fill="black"/>
<path d="M110.067 70.7782H108.103C107.018 70.7782 106.138 71.6577 106.138 72.7427V72.7427C106.138 73.8276 107.018 74.7071 108.103 74.7071H110.067L110.067 70.7782Z" fill="black"/>
<path d="M113.996 70.7782H110.067L110.067 74.7071H113.996V70.7782Z" fill="black"/>
<path d="M117.925 70.7782H113.996V74.7071V74.7071C116.166 74.7071 117.925 72.9481 117.925 70.7782V70.7782Z" fill="black"/>
<path d="M11.8449 74.7071H7.91599V74.7071C7.91599 76.877 9.67501 78.636 11.8449 78.636V78.636V74.7071Z" fill="black"/>
<path d="M15.7738 74.7071H11.8449V78.636H15.7738V74.7071Z" fill="black"/>
<path d="M23.6315 74.7071H19.7027V78.636H23.6315V74.7071Z" fill="black"/>
<path d="M27.5604 74.7071H23.6315V78.636H27.5604V74.7071Z" fill="black"/>
<path d="M55.0627 74.7071H51.1338V78.636V78.636C53.3036 78.636 55.0627 76.877 55.0627 74.7071V74.7071Z" fill="black"/>
<path d="M66.8493 76.6715C66.8493 75.5866 65.9698 74.7071 64.8849 74.7071V74.7071C63.7999 74.7071 62.9204 75.5866 62.9204 76.6715V76.6715C62.9204 77.7565 63.7999 78.636 64.8849 78.636V78.636C65.9698 78.636 66.8493 77.7565 66.8493 76.6715V76.6715Z" fill="black"/>
<path d="M90.4227 74.7071H86.4938V78.636H90.4227L90.4227 74.7071Z" fill="black"/>
<path d="M94.3515 74.7071H90.4227L90.4227 78.636H94.3515V74.7071Z" fill="black"/>
<path d="M102.209 76.6715C102.209 75.5866 101.33 74.7071 100.245 74.7071V74.7071C99.1599 74.7071 98.2804 75.5866 98.2804 76.6715V78.636H102.209V76.6715Z" fill="black"/>
<path d="M113.996 74.7071H110.067L110.067 78.636H113.996V74.7071Z" fill="black"/>
<path d="M19.7027 78.636H15.7738V78.636C15.7738 80.8059 17.5328 82.5649 19.7027 82.5649V82.5649V78.636Z" fill="black"/>
<path d="M27.5604 78.636H23.6315L23.6315 82.5649H27.5604V78.636Z" fill="black"/>
<path d="M35.4182 78.636V78.636C33.2483 78.636 31.4893 80.395 31.4893 82.5649V82.5649H35.4182V78.636Z" fill="black"/>
<path d="M39.3471 80.6004C39.3471 79.5155 38.4676 78.636 37.3827 78.636H35.4182V82.5649H37.3827C38.4676 82.5649 39.3471 81.6854 39.3471 80.6004V80.6004Z" fill="black"/>
<path d="M47.2049 78.636V78.636C45.035 78.636 43.276 80.395 43.276 82.5649V82.5649H47.2049V78.636Z" fill="black"/>
<path d="M51.1338 78.636L47.2049 78.636V82.5649H51.1338V78.636Z" fill="black"/>
<path d="M90.4227 78.636H86.4938V82.5649H90.4227V78.636Z" fill="black"/>
<path d="M94.3515 78.636H90.4227V82.5649H94.3515V78.636Z" fill="black"/>
<path d="M98.2804 78.636H94.3515V82.5649H98.2804V78.636Z" fill="black"/>
<path d="M102.209 78.636H98.2804V82.5649H102.209V78.636Z" fill="black"/>
<path d="M106.138 78.636L102.209 78.636V82.5649H106.138V78.636Z" fill="black"/>
<path d="M110.067 78.636L106.138 78.636V82.5649H110.067L110.067 78.636Z" fill="black"/>
<path d="M113.996 78.636H110.067L110.067 82.5649H113.996V78.636Z" fill="black"/>
<path d="M121.854 80.6004C121.854 79.5155 120.974 78.636 119.889 78.636V78.636C118.804 78.636 117.925 79.5155 117.925 80.6004V82.5649H119.889C120.974 82.5649 121.854 81.6854 121.854 80.6004V80.6004Z" fill="black"/>
<path d="M23.6315 82.5649H19.7027V86.4938H23.6315L23.6315 82.5649Z" fill="black"/>
<path d="M27.5604 82.5649H23.6315L23.6315 86.4938H27.5604V82.5649Z" fill="black"/>
<path d="M31.4893 82.5649H27.5604V86.4938H31.4893V82.5649Z" fill="black"/>
<path d="M47.2049 82.5649H43.276V86.4938H47.2049V82.5649Z" fill="black"/>
<path d="M51.1338 82.5649H47.2049V86.4938H51.1338V82.5649Z" fill="black"/>
<path d="M58.9915 84.5293C58.9915 83.4444 58.112 82.5649 57.0271 82.5649V82.5649C55.9422 82.5649 55.0627 83.4444 55.0627 84.5293V86.4938H57.0271C58.112 86.4938 58.9915 85.6143 58.9915 84.5293V84.5293Z" fill="black"/>
<path d="M66.8493 82.5649H64.8849C63.7999 82.5649 62.9204 83.4444 62.9204 84.5293V84.5293C62.9204 85.6143 63.7999 86.4938 64.8849 86.4938H66.8493V82.5649Z" fill="black"/>
<path d="M70.7782 82.5649H66.8493V86.4938H70.7782V82.5649Z" fill="black"/>
<path d="M74.7071 82.5649H70.7782V86.4938H74.7071V82.5649Z" fill="black"/>
<path d="M78.636 82.5649H74.7071V86.4938H78.636V82.5649Z" fill="black"/>
<path d="M82.5649 82.5649H78.636V86.4938H82.5649V82.5649Z" fill="black"/>
<path d="M86.4938 82.5649H82.5649V86.4938H86.4938V82.5649Z" fill="black"/>
<path d="M90.4227 82.5649H86.4938V86.4938H90.4227V82.5649Z" fill="black"/>
<path d="M102.209 82.5649H98.2804V86.4938H102.209V82.5649Z" fill="black"/>
<path d="M117.925 82.5649H113.996V86.4938H117.925V82.5649Z" fill="black"/>
<path d="M11.8449 86.4938H9.88044C8.7955 86.4938 7.91599 87.3733 7.91599 88.4582V88.4582C7.91599 89.5431 8.7955 90.4227 9.88044 90.4227H11.8449V86.4938Z" fill="black"/>
<path d="M15.7738 86.4938H11.8449V90.4227H15.7738V86.4938Z" fill="black"/>
<path d="M19.7027 86.4938H15.7738V90.4227H19.7027V86.4938Z" fill="black"/>
<path d="M23.6315 86.4938H19.7027V90.4227V90.4227C21.8725 90.4227 23.6315 88.6636 23.6315 86.4938V86.4938Z" fill="black"/>
<path d="M31.4893 86.4938H27.5604V86.4938C27.5604 88.6636 29.3195 90.4227 31.4893 90.4227V90.4227V86.4938Z" fill="black"/>
<path d="M35.4182 86.4938H31.4893V90.4227H35.4182V86.4938Z" fill="black"/>
<path d="M39.3471 86.4938H35.4182V90.4227H39.3471V86.4938Z" fill="black"/>
<path d="M43.276 86.4938H39.3471V90.4227H43.276V86.4938Z" fill="black"/>
<path d="M55.0627 86.4938H51.1338V90.4227H55.0627V86.4938Z" fill="black"/>
<path d="M70.7782 86.4938H66.8493L66.8493 90.4227H70.7782V86.4938Z" fill="black"/>
<path d="M74.7071 86.4938H70.7782V90.4227H74.7071V86.4938Z" fill="black"/>
<path d="M78.636 86.4938H74.7071V90.4227H78.636V86.4938Z" fill="black"/>
<path d="M82.5649 86.4938H78.636V90.4227H82.5649V86.4938Z" fill="black"/>
<path d="M86.4938 86.4938H82.5649V90.4227H86.4938V86.4938Z" fill="black"/>
<path d="M90.4227 86.4938H86.4938V90.4227H90.4227V86.4938Z" fill="black"/>
<path d="M94.3515 86.4938H90.4227V90.4227H94.3515V86.4938Z" fill="black"/>
<path d="M98.2804 86.4938H94.3515V90.4227H98.2804V86.4938Z" fill="black"/>
<path d="M102.209 86.4938H98.2804V90.4227H102.209V86.4938Z" fill="black"/>
<path d="M106.138 90.4227C106.138 88.2528 104.379 86.4938 102.209 86.4938V86.4938V90.4227H106.138V90.4227Z" fill="black"/>
<path d="M113.996 86.4938V86.4938C111.826 86.4938 110.067 88.2528 110.067 90.4227V90.4227H113.996V86.4938Z" fill="black"/>
<path d="M121.854 88.4582C121.854 87.3733 120.974 86.4938 119.889 86.4938H117.925V88.4582C117.925 89.5431 118.804 90.4227 119.889 90.4227V90.4227C120.974 90.4227 121.854 89.5431 121.854 88.4582V88.4582Z" fill="black"/>
<path d="M43.276 90.4227H39.3471V94.3515H43.276V90.4227Z" fill="black"/>
<path d="M47.2049 90.4227L43.276 90.4227V94.3515H47.2049V90.4227Z" fill="black"/>
<path d="M51.1338 90.4227L47.2049 90.4227V94.3515H51.1338V90.4227Z" fill="black"/>
<path d="M58.9915 92.3871C58.9915 91.3022 58.112 90.4227 57.0271 90.4227L55.0627 90.4227V94.3515H57.0271C58.112 94.3515 58.9915 93.472 58.9915 92.3871V92.3871Z" fill="black"/>
<path d="M66.8493 90.4227V90.4227C64.6795 90.4227 62.9204 92.1817 62.9204 94.3515V94.3515H66.8493L66.8493 90.4227Z" fill="black"/>
<path d="M82.5649 90.4227H78.636L78.636 94.3515H82.5649V90.4227Z" fill="black"/>
<path d="M90.4227 90.4227H86.4938V94.3515H90.4227V90.4227Z" fill="black"/>
<path d="M106.138 90.4227H102.209V94.3515H106.138V90.4227Z" fill="black"/>
<path d="M113.996 90.4227H110.067V94.3515H113.996V90.4227Z" fill="black"/>
<path d="M11.8449 94.3515V94.3515C9.67501 94.3515 7.91599 96.1106 7.91599 98.2804V98.2804H11.8449V94.3515Z" fill="black"/>
<path d="M15.7738 94.3515H11.8449V98.2804H15.7738V94.3515Z" fill="black"/>
<path d="M19.7027 94.3515H15.7738V98.2804H19.7027V94.3515Z" fill="black"/>
<path d="M23.6315 94.3515H19.7027V98.2804H23.6315V94.3515Z" fill="black"/>
<path d="M27.5604 94.3515H23.6315V98.2804H27.5604V94.3515Z" fill="black"/>
<path d="M31.4893 94.3515H27.5604V98.2804H31.4893V94.3515Z" fill="black"/>
<path d="M35.4182 98.2804C35.4182 96.1106 33.6592 94.3515 31.4893 94.3515V94.3515V98.2804H35.4182V98.2804Z" fill="black"/>
<path d="M43.276 94.3515H39.3471V98.2804H43.276V94.3515Z" fill="black"/>
<path d="M47.2049 94.3515H43.276V98.2804H47.2049V94.3515Z" fill="black"/>
<path d="M55.0627 94.3515H51.1338V94.3515C51.1338 96.5214 52.8928 98.2804 55.0627 98.2804V98.2804V94.3515Z" fill="black"/>
<path d="M66.8493 94.3515H62.9204V94.3515C62.9204 96.5214 64.6795 98.2804 66.8493 98.2804V98.2804V94.3515Z" fill="black"/>
<path d="M70.7782 94.3515H66.8493V98.2804H70.7782V94.3515Z" fill="black"/>
<path d="M74.7071 94.3515H70.7782V98.2804H74.7071V94.3515Z" fill="black"/>
<path d="M78.636 94.3515H74.7071V98.2804V98.2804C76.877 98.2804 78.636 96.5214 78.636 94.3515V94.3515Z" fill="black"/>
<path d="M86.4938 94.3515H82.5649V98.2804H86.4938V94.3515Z" fill="black"/>
<path d="M90.4227 94.3515H86.4938V98.2804H90.4227V94.3515Z" fill="black"/>
<path d="M98.2804 96.316C98.2804 95.2311 97.4009 94.3515 96.316 94.3515V94.3515C95.2311 94.3515 94.3515 95.2311 94.3515 96.316V96.316C94.3515 97.4009 95.2311 98.2804 96.316 98.2804V98.2804C97.4009 98.2804 98.2804 97.4009 98.2804 96.316V96.316Z" fill="black"/>
<path d="M106.138 94.3515H102.209V98.2804H106.138V94.3515Z" fill="black"/>
<path d="M110.067 94.3515H106.138V98.2804H110.067L110.067 94.3515Z" fill="black"/>
<path d="M113.996 94.3515H110.067L110.067 98.2804H113.996V94.3515Z" fill="black"/>
<path d="M121.854 96.316C121.854 95.2311 120.974 94.3515 119.889 94.3515V94.3515C118.804 94.3515 117.925 95.2311 117.925 96.316V98.2804H119.889C120.974 98.2804 121.854 97.4009 121.854 96.316V96.316Z" fill="black"/>
<path d="M11.8449 98.2804H7.91599V102.209H11.8449V98.2804Z" fill="black"/>
<path d="M35.4182 98.2804H31.4893V102.209H35.4182V98.2804Z" fill="black"/>
<path d="M43.276 98.2804H39.3471V102.209H43.276V98.2804Z" fill="black"/>
<path d="M47.2049 98.2804H43.276V102.209H47.2049V98.2804Z" fill="black"/>
<path d="M58.9915 102.209C58.9915 100.039 57.2325 98.2804 55.0627 98.2804V98.2804V98.2804C55.0627 100.45 56.8217 102.209 58.9915 102.209V102.209V102.209Z" fill="black"/>
<path d="M74.7071 98.2804H70.7782V102.209H74.7071V98.2804Z" fill="black"/>
<path d="M86.4938 98.2804H82.5649V98.2804C82.5649 100.45 84.3239 102.209 86.4938 102.209V102.209V98.2804Z" fill="black"/>
<path d="M90.4227 98.2804H86.4938V102.209H90.4227V98.2804Z" fill="black"/>
<path d="M106.138 98.2804H102.209V102.209H106.138V98.2804Z" fill="black"/>
<path d="M110.067 98.2804H106.138V102.209H110.067V98.2804Z" fill="black"/>
<path d="M117.925 98.2804H113.996V102.209H117.925V98.2804Z" fill="black"/>
<path d="M11.8449 102.209H7.91599V106.138H11.8449V102.209Z" fill="black"/>
<path d="M19.7027 102.209V102.209C17.5328 102.209 15.7738 103.968 15.7738 106.138V106.138H19.7027V102.209Z" fill="black"/>
<path d="M23.6315 102.209H19.7027V106.138H23.6315V102.209Z" fill="black"/>
<path d="M27.5604 106.138C27.5604 103.968 25.8014 102.209 23.6315 102.209V102.209V106.138H27.5604V106.138Z" fill="black"/>
<path d="M35.4182 102.209H31.4893V106.138H35.4182V102.209Z" fill="black"/>
<path d="M43.276 102.209H39.3471V102.209C39.3471 104.379 41.1061 106.138 43.276 106.138V106.138V102.209Z" fill="black"/>
<path d="M47.2049 102.209H43.276V106.138V106.138C45.4459 106.138 47.2049 104.379 47.2049 102.209V102.209Z" fill="black"/>
<path d="M62.9204 104.174C62.9204 103.089 62.0409 102.209 60.956 102.209H58.9915V106.138H60.956C62.0409 106.138 62.9204 105.259 62.9204 104.174V104.174Z" fill="black"/>
<path d="M70.7782 102.209H68.8138C67.7288 102.209 66.8493 103.089 66.8493 104.174V104.174C66.8493 105.259 67.7288 106.138 68.8138 106.138H70.7782V102.209Z" fill="black"/>
<path d="M74.7071 102.209H70.7782V106.138H74.7071V102.209Z" fill="black"/>
<path d="M90.4227 102.209H86.4938V106.138H90.4227V102.209Z" fill="black"/>
<path d="M94.3515 102.209H90.4227V106.138H94.3515V102.209Z" fill="black"/>
<path d="M98.2804 102.209H94.3515V106.138H98.2804V102.209Z" fill="black"/>
<path d="M102.209 102.209H98.2804V106.138H102.209V102.209Z" fill="black"/>
<path d="M106.138 102.209H102.209V106.138H106.138V102.209Z" fill="black"/>
<path d="M110.067 102.209H106.138V106.138H110.067V102.209Z" fill="black"/>
<path d="M113.996 102.209H110.067V106.138H113.996V102.209Z" fill="black"/>
<path d="M117.925 102.209H113.996V106.138H117.925V102.209Z" fill="black"/>
<path d="M11.8449 106.138H7.91599V110.067H11.8449V106.138Z" fill="black"/>
<path d="M19.7027 106.138H15.7738V110.067H19.7027V106.138Z" fill="black"/>
<path d="M23.6315 106.138H19.7027V110.067H23.6315V106.138Z" fill="black"/>
<path d="M27.5604 106.138H23.6315V110.067H27.5604V106.138Z" fill="black"/>
<path d="M35.4182 106.138H31.4893V110.067H35.4182V106.138Z" fill="black"/>
<path d="M58.9915 106.138H57.0271C55.9422 106.138 55.0627 107.018 55.0627 108.103V108.103C55.0627 109.188 55.9422 110.067 57.0271 110.067V110.067C58.112 110.067 58.9915 109.188 58.9915 108.103V106.138Z" fill="black"/>
<path d="M74.7071 106.138H70.7782V110.067H74.7071V106.138Z" fill="black"/>
<path d="M78.636 106.138H74.7071V110.067H78.636V106.138Z" fill="black"/>
<path d="M82.5649 106.138H78.636V110.067H82.5649V106.138Z" fill="black"/>
<path d="M86.4938 106.138H82.5649V110.067V110.067C84.7347 110.067 86.4938 108.308 86.4938 106.138V106.138Z" fill="black"/>
<path d="M98.2804 106.138H94.3515V110.067V110.067C96.5214 110.067 98.2804 108.308 98.2804 106.138V106.138Z" fill="black"/>
<path d="M106.138 106.138H102.209V106.138C102.209 108.308 103.968 110.067 106.138 110.067V110.067V106.138Z" fill="black"/>
<path d="M113.996 106.138H110.067L110.067 110.067H113.996V106.138Z" fill="black"/>
<path d="M117.925 106.138H113.996V110.067H117.925V106.138Z" fill="black"/>
<path d="M11.8449 110.067H7.91599V113.996H11.8449V110.067Z" fill="black"/>
<path d="M19.7027 110.067H15.7738V110.067C15.7738 112.237 17.5328 113.996 19.7027 113.996V113.996V110.067Z" fill="black"/>
<path d="M23.6315 110.067H19.7027V113.996H23.6315V110.067Z" fill="black"/>
<path d="M27.5604 110.067H23.6315V113.996V113.996C25.8014 113.996 27.5604 112.237 27.5604 110.067V110.067Z" fill="black"/>
<path d="M35.4182 110.067H31.4893V113.996H35.4182V110.067Z" fill="black"/>
<path d="M47.2049 112.032C47.2049 110.947 46.3254 110.067 45.2404 110.067V110.067C44.1555 110.067 43.276 110.947 43.276 112.032V112.032C43.276 113.116 44.1555 113.996 45.2404 113.996H47.2049V112.032Z" fill="black"/>
<path d="M74.7071 110.067H70.7782V113.996H74.7071V110.067Z" fill="black"/>
<path d="M94.3515 110.067V110.067C92.1817 110.067 90.4227 111.826 90.4227 113.996V113.996H94.3515V110.067Z" fill="black"/>
<path d="M110.067 110.067H106.138V113.996H110.067L110.067 110.067Z" fill="black"/>
<path d="M113.996 110.067H110.067L110.067 113.996H113.996V110.067Z" fill="black"/>
<path d="M117.925 110.067H113.996V113.996H117.925V110.067Z" fill="black"/>
<path d="M121.854 112.032C121.854 110.947 120.974 110.067 119.889 110.067L117.925 110.067V113.996H119.889C120.974 113.996 121.854 113.116 121.854 112.032V112.032Z" fill="black"/>
<path d="M11.8449 113.996H7.91599V117.925H11.8449V113.996Z" fill="black"/>
<path d="M35.4182 113.996H31.4893V117.925H35.4182V113.996Z" fill="black"/>
<path d="M51.1338 113.996H47.2049L47.2049 117.925H51.1338V113.996Z" fill="black"/>
<path d="M55.0627 117.925C55.0627 115.755 53.3036 113.996 51.1338 113.996V113.996V117.925H55.0627V117.925Z" fill="black"/>
<path d="M62.9204 115.96C62.9204 114.875 62.0409 113.996 60.956 113.996V113.996C59.8711 113.996 58.9915 114.875 58.9915 115.96V117.925H62.9204V115.96Z" fill="black"/>
<path d="M70.7782 113.996V113.996C68.6083 113.996 66.8493 115.755 66.8493 117.925V117.925H70.7782V113.996Z" fill="black"/>
<path d="M74.7071 113.996H70.7782V117.925H74.7071V113.996Z" fill="black"/>
<path d="M86.4938 113.996V113.996C84.3239 113.996 82.5649 115.755 82.5649 117.925V117.925H86.4938V113.996Z" fill="black"/>
<path d="M90.4227 113.996H86.4938V117.925H90.4227L90.4227 113.996Z" fill="black"/>
<path d="M94.3515 113.996H90.4227L90.4227 117.925H94.3515V113.996Z" fill="black"/>
<path d="M98.2804 117.925C98.2804 115.755 96.5214 113.996 94.3515 113.996V113.996V117.925H98.2804V117.925Z" fill="black"/>
<path d="M106.138 113.996V113.996C103.968 113.996 102.209 115.755 102.209 117.925V117.925H106.138V113.996Z" fill="black"/>
<path d="M11.8449 117.925H7.91599V117.925C7.91599 120.095 9.67501 121.854 11.8449 121.854V121.854V117.925Z" fill="black"/>
<path d="M15.7738 117.925H11.8449V121.854H15.7738V117.925Z" fill="black"/>
<path d="M19.7027 117.925H15.7738V121.854H19.7027V117.925Z" fill="black"/>
<path d="M23.6315 117.925H19.7027V121.854H23.6315V117.925Z" fill="black"/>
<path d="M27.5604 117.925H23.6315V121.854H27.5604V117.925Z" fill="black"/>
<path d="M31.4893 117.925H27.5604V121.854H31.4893V117.925Z" fill="black"/>
<path d="M35.4182 117.925H31.4893V121.854V121.854C33.6592 121.854 35.4182 120.095 35.4182 117.925V117.925Z" fill="black"/>
<path d="M47.2049 117.925H45.2404C44.1555 117.925 43.276 118.804 43.276 119.889V119.889C43.276 120.974 44.1555 121.854 45.2404 121.854V121.854C46.3254 121.854 47.2049 120.974 47.2049 119.889L47.2049 117.925Z" fill="black"/>
<path d="M55.0627 117.925H51.1338V117.925C51.1338 120.095 52.8928 121.854 55.0627 121.854V121.854V117.925Z" fill="black"/>
<path d="M58.9915 117.925H55.0627V121.854H58.9915V117.925Z" fill="black"/>
<path d="M62.9204 117.925H58.9915V121.854H62.9204V117.925Z" fill="black"/>
<path d="M66.8493 117.925H62.9204V121.854V121.854C65.0903 121.854 66.8493 120.095 66.8493 117.925V117.925Z" fill="black"/>
<path d="M78.636 117.925H74.7071V117.925C74.7071 120.095 76.4661 121.854 78.636 121.854V121.854V117.925Z" fill="black"/>
<path d="M82.5649 117.925H78.636V121.854V121.854C80.8059 121.854 82.5649 120.095 82.5649 117.925V117.925Z" fill="black"/>
<path d="M98.2804 117.925H94.3515V117.925C94.3515 120.095 96.1106 121.854 98.2804 121.854V121.854V117.925Z" fill="black"/>
<path d="M102.209 117.925H98.2804V121.854H102.209V117.925Z" fill="black"/>
<path d="M106.138 117.925H102.209V121.854H106.138V117.925Z" fill="black"/>
<path d="M110.067 119.889C110.067 118.804 109.188 117.925 108.103 117.925H106.138V121.854H108.103C109.188 121.854 110.067 120.974 110.067 119.889V119.889Z" fill="black"/>
<path d="M117.925 119.889C117.925 118.804 117.045 117.925 115.96 117.925V117.925C114.875 117.925 113.996 118.804 113.996 119.889V119.889C113.996 120.974 114.875 121.854 115.96 121.854V121.854C117.045 121.854 117.925 120.974 117.925 119.889V119.889Z" fill="black"/>
</svg>
