<svg width="20" height="60" viewBox="0 0 20 60" fill="none" xmlns="http://www.w3.org/2000/svg">
<g clip-path="url(#clip0_1064_2576)">
<mask id="path-1-inside-1_1064_2576" fill="white">
<path fill-rule="evenodd" clip-rule="evenodd" d="M20 4.60307C20 2.06087 17.9391 0 15.3969 0H-761C-763.761 0 -766 2.23858 -766 5V55C-766 57.7614 -763.761 60 -761 60H15.3969C17.9391 60 20 57.9391 20 55.3969V55.3969C20 54.0174 19.3667 52.7256 18.3655 51.7766C12.5975 46.3093 9 38.5748 9 30C9 21.4252 12.5975 13.6907 18.3655 8.22341C19.3667 7.27438 20 5.9826 20 4.60307V4.60307Z"/>
</mask>
<path fill-rule="evenodd" clip-rule="evenodd" d="M20 4.60307C20 2.06087 17.9391 0 15.3969 0H-761C-763.761 0 -766 2.23858 -766 5V55C-766 57.7614 -763.761 60 -761 60H15.3969C17.9391 60 20 57.9391 20 55.3969V55.3969C20 54.0174 19.3667 52.7256 18.3655 51.7766C12.5975 46.3093 9 38.5748 9 30C9 21.4252 12.5975 13.6907 18.3655 8.22341C19.3667 7.27438 20 5.9826 20 4.60307V4.60307Z" fill="white"/>
<path d="M18.3655 8.22341L19.0534 8.94918L18.3655 8.22341ZM18.3655 51.7766L19.0534 51.0508L18.3655 51.7766ZM-761 1H15.3969V-1H-761V1ZM-765 55V5H-767V55H-765ZM15.3969 59H-761V61H15.3969V59ZM19.0534 51.0508C13.4763 45.7645 10 38.289 10 30H8C8 38.8605 11.7186 46.8541 17.6775 52.5024L19.0534 51.0508ZM10 30C10 21.711 13.4763 14.2355 19.0534 8.94918L17.6775 7.49764C11.7186 13.1459 8 21.1395 8 30H10ZM19.0534 8.94918C20.2251 7.83854 21 6.29431 21 4.60307H19C19 5.67089 18.5082 6.71023 17.6775 7.49764L19.0534 8.94918ZM21 55.3969C21 53.7057 20.2251 52.1615 19.0534 51.0508L17.6775 52.5024C18.5082 53.2898 19 54.3291 19 55.3969H21ZM15.3969 61C18.4914 61 21 58.4914 21 55.3969H19C19 57.3868 17.3868 59 15.3969 59V61ZM-767 55C-767 58.3137 -764.314 61 -761 61V59C-763.209 59 -765 57.2091 -765 55H-767ZM15.3969 1C17.3868 1 19 2.61315 19 4.60307H21C21 1.50858 18.4914 -1 15.3969 -1V1ZM-761 -1C-764.314 -1 -767 1.68629 -767 5H-765C-765 2.79086 -763.209 1 -761 1V-1Z" fill="#9DC4EF" fill-opacity="0.2" mask="url(#path-1-inside-1_1064_2576)"/>
</g>
<defs>
<clipPath id="clip0_1064_2576">
<rect width="20" height="60" fill="white"/>
</clipPath>
</defs>
</svg>
