<svg width="786" height="60" preserveAspectRatio="none" viewBox="0 0 786 60" fill="none" xmlns="http://www.w3.org/2000/svg">
<mask id="path-1-inside-1_91_1084" fill="white">
<path fill-rule="evenodd" clip-rule="evenodd" d="M786 4.60307C786 2.06087 783.939 0 781.397 0H5C2.23858 0 0 2.23858 0 5V55C0 57.7614 2.23856 60 4.99999 60H781.397C783.939 60 786 57.9391 786 55.3969V55.3969C786 54.0174 785.367 52.7256 784.365 51.7766C778.597 46.3093 775 38.5748 775 30C775 21.4252 778.597 13.6907 784.365 8.22341C785.367 7.27438 786 5.9826 786 4.60307V4.60307Z"/>
</mask>
<path fill-rule="evenodd" clip-rule="evenodd" d="M786 4.60307C786 2.06087 783.939 0 781.397 0H5C2.23858 0 0 2.23858 0 5V55C0 57.7614 2.23856 60 4.99999 60H781.397C783.939 60 786 57.9391 786 55.3969V55.3969C786 54.0174 785.367 52.7256 784.365 51.7766C778.597 46.3093 775 38.5748 775 30C775 21.4252 778.597 13.6907 784.365 8.22341C785.367 7.27438 786 5.9826 786 4.60307V4.60307Z" fill="white"/>
<path d="M784.365 8.22341L785.053 8.94918L784.365 8.22341ZM784.365 51.7766L785.053 51.0508L784.365 51.7766ZM5 1H781.397V-1H5V1ZM1 55V5H-1V55H1ZM781.397 59H4.99999V61H781.397V59ZM785.053 51.0508C779.476 45.7645 776 38.289 776 30H774C774 38.8605 777.719 46.8541 783.678 52.5024L785.053 51.0508ZM776 30C776 21.711 779.476 14.2355 785.053 8.94918L783.678 7.49764C777.719 13.1459 774 21.1395 774 30H776ZM785.053 8.94918C786.225 7.83854 787 6.29431 787 4.60307H785C785 5.67089 784.508 6.71023 783.678 7.49764L785.053 8.94918ZM787 55.3969C787 53.7057 786.225 52.1615 785.053 51.0508L783.678 52.5024C784.508 53.2898 785 54.3291 785 55.3969H787ZM781.397 61C784.491 61 787 58.4914 787 55.3969H785C785 57.3868 783.387 59 781.397 59V61ZM-1 55C-1 58.3137 1.68627 61 4.99999 61V59C2.79085 59 1 57.2091 1 55H-1ZM781.397 1C783.387 1 785 2.61315 785 4.60307H787C787 1.50858 784.491 -1 781.397 -1V1ZM5 -1C1.68629 -1 -1 1.68629 -1 5H1C1 2.79086 2.79086 1 5 1V-1Z" fill="#9DC4EF" fill-opacity="0.2" mask="url(#path-1-inside-1_91_1084)"/>
</svg>
