<svg width="68" height="64" viewBox="0 0 68 64" fill="none" xmlns="http://www.w3.org/2000/svg">
<rect x="12" y="10" width="44" height="44" rx="10" fill="url(#paint0_linear_13_23)"/>
<rect x="12" y="10" width="44" height="44" rx="10" fill="url(#paint1_linear_13_23)" fill-opacity="0.2"/>
<g filter="url(#filter0_b_13_23)">
<path d="M46.6571 23.3441C46.8374 23.3183 47.0677 23.1981 47.1533 23.0507C47.608 22.2732 48.693 21.6693 49.5703 21.8158C51.0104 22.0575 52.4542 22.3078 53.8832 22.612C54.4572 22.7371 54.9548 23.0855 55.2751 23.5815C55.5912 24.0773 55.6984 24.6817 55.5733 25.2594C55.4241 25.9115 55.5412 26.3821 55.9596 26.9242C57.5422 28.9714 58.3304 31.3663 58.7167 33.8952C59.4417 38.6111 59.6152 43.3539 59.109 48.1054C58.8007 50.9863 58.3228 53.8348 57.0742 56.4827C56.7392 57.1898 56.342 57.8901 55.845 58.4897C54.1169 60.5635 51.9905 60.6742 49.972 58.8726C48.7681 57.7979 47.8662 56.4886 47.0888 55.0965C45.4484 52.1703 44.393 49.0173 43.5499 45.7769C43.5322 45.7049 43.4974 45.6405 43.454 45.5841C43.4065 45.5275 43.35 45.4832 43.2847 45.451C43.2194 45.4189 43.1493 45.4033 43.0785 45.4003C43.0078 45.3973 42.9363 45.411 42.8683 45.4417C42.1378 45.7545 41.4247 45.9547 40.644 45.8879C38.7708 45.7325 37.4736 44.7922 36.7778 43.0555C36.5899 42.5819 36.3423 42.3323 35.8414 42.2522C33.9249 41.944 32.0091 41.6191 30.098 41.2818C29.7176 41.211 29.4748 41.3307 29.2206 41.6176C27.5041 43.52 24.7187 43.6403 22.8608 41.8834C22.5164 41.5583 22.3381 41.5381 22.0449 41.9534C20.1646 44.6541 18.0714 47.1695 15.5651 49.3108C14.0457 50.6092 12.4443 51.7824 10.4451 52.2256C8.4163 52.6802 6.93616 51.9209 6.12752 49.999C5.41761 48.2994 5.37468 46.5024 5.52765 44.7054C5.92586 40.0415 7.32546 35.6426 9.16534 31.3758C10.2591 28.8388 11.4183 26.3297 12.9929 24.048C14.1981 22.3042 15.6347 20.801 17.5252 19.7869C17.7086 19.6898 17.8617 19.4279 17.9209 19.2166C18.0487 18.769 18.0982 18.3014 18.193 17.844C18.2988 17.3285 18.6394 17.0662 19.1085 16.8219C20.0127 16.3488 20.8866 16.4783 21.8035 16.6726C22.7988 16.887 23.8007 17.0429 24.8011 17.2366C25.8301 17.4398 26.6702 18.4445 26.7339 19.4748C26.7428 19.5591 26.7686 19.6357 26.8113 19.7088C26.854 19.782 26.9138 19.8432 26.9828 19.8881L35.7226 21.8336C36.445 21.9944 37.1773 22.1221 37.915 22.2206L46.6526 23.3523L46.6571 23.3441Z" fill="white" fill-opacity="0.01"/>
</g>
<path d="M52.667 60.5522C51.6685 60.5097 50.6713 60.0519 49.7002 59.1843C48.6128 58.211 47.6702 56.9754 46.73 55.2995C45.2911 52.7258 44.1537 49.7329 43.1537 45.8819L43.2932 45.4516L43.1101 45.8297L43.0394 45.8267C42.4194 46.0897 41.5771 46.3851 40.6176 46.3064C38.5699 46.1394 37.1521 45.0975 36.3959 43.2156C36.2494 42.8445 36.1087 42.7252 35.7818 42.6693C34.0639 42.3948 32.2391 42.0863 30.0342 41.6987C29.8358 41.6609 29.7305 41.6857 29.5376 41.904C28.627 42.9096 27.4097 43.491 26.111 43.5447C24.8167 43.5944 23.5619 43.1173 22.5809 42.1904C22.533 42.1423 22.4966 42.1155 22.4684 42.0934C22.4465 42.1176 22.4201 42.15 22.389 42.1948C20.2642 45.2458 18.1247 47.6753 15.8391 49.6289C14.3371 50.9112 12.6573 52.1608 10.5402 52.6326C8.33046 53.1256 6.62603 52.2518 5.74976 50.1592C4.94184 48.2206 4.98759 46.2051 5.11682 44.6671C5.47407 40.4671 6.63921 36.1882 8.78529 31.2046C9.78169 28.8941 10.9811 26.2274 12.6535 23.8031C14.0455 21.7904 15.575 20.3541 17.3333 19.4098C17.3803 19.3825 17.4822 19.2442 17.5264 19.0909C17.6 18.834 17.6453 18.5591 17.6953 18.2718C17.7237 18.0969 17.7563 17.9221 17.7887 17.7515C17.9363 17.0406 18.4179 16.7004 18.921 16.4408C19.9531 15.9018 20.9552 16.0536 21.8969 16.2531C22.4875 16.379 23.0955 16.4888 23.6829 16.5935C24.0841 16.6652 24.4853 16.7368 24.8861 16.8168C26.0847 17.0524 27.0809 18.2064 27.1523 19.4426C27.1523 19.4426 27.1597 19.4639 27.1713 19.4853C27.1713 19.4853 27.1751 19.4939 27.1793 19.494L35.8158 21.4183C36.5218 21.5743 37.2457 21.7016 37.9711 21.7954L46.634 22.9197C46.7058 22.8976 46.7744 22.8544 46.7963 22.8302C47.3545 21.8767 48.6288 21.2306 49.6385 21.3995C50.9297 21.6139 52.4523 21.8759 53.9721 22.2008C54.6617 22.3518 55.2482 22.7627 55.6269 23.3535C56.0055 23.9484 56.1332 24.6543 55.9824 25.3441C55.8637 25.8717 55.9447 26.2149 56.2879 26.6616C57.7483 28.5484 58.6803 30.8949 59.1282 33.8291C59.8792 38.7139 60.0121 43.5304 59.5242 48.1485C59.2433 50.7789 58.7766 53.8502 57.4544 56.6585C57.0506 57.5095 56.6332 58.1964 56.1671 58.7553C55.2438 59.861 54.209 60.4628 53.0883 60.545C52.9462 60.5558 52.8085 60.5583 52.667 60.5522ZM43.1095 44.9782C43.2343 44.9836 43.3581 45.014 43.4724 45.0692C43.5907 45.1288 43.6954 45.2129 43.7786 45.3129C43.8616 45.4171 43.9233 45.533 43.9551 45.6644C44.9373 49.4476 46.0482 52.3764 47.4524 54.8857C48.342 56.4797 49.2292 57.6458 50.2486 58.5533C51.1837 59.3859 52.1131 59.7737 53.0246 59.7077C53.9112 59.6406 54.7541 59.1397 55.5236 58.2162C55.9414 57.7139 56.323 57.0842 56.6947 56.299C57.9617 53.6099 58.4025 50.7514 58.6902 48.0584C59.1749 43.5157 59.0431 38.7705 58.3015 33.9574C57.8724 31.1667 56.9972 28.9525 55.6236 27.1785C55.1262 26.5365 54.9858 25.9308 55.1607 25.1665C55.2599 24.7051 55.1729 24.2107 54.9194 23.8098C54.6619 23.4046 54.2614 23.1233 53.7905 23.0235C52.2913 22.7037 50.7771 22.4421 49.4984 22.2282C48.8239 22.1155 47.8942 22.6002 47.5069 23.2631C47.3405 23.5454 46.9913 23.7151 46.7143 23.7578L46.6555 23.7679L46.5973 23.7654L37.8599 22.6295C37.1097 22.5305 36.3608 22.4021 35.6302 22.2367L26.8162 20.2713L26.7515 20.2266C26.6341 20.1461 26.5345 20.0412 26.4607 19.9164C26.3869 19.7916 26.3386 19.6553 26.324 19.5121C26.2704 18.6332 25.5562 17.8017 24.7255 17.6362C24.3287 17.5606 23.9316 17.4891 23.5346 17.4177C22.9389 17.3126 22.3268 17.2026 21.7239 17.072C20.869 16.8888 20.0946 16.7719 19.3056 17.1829C18.8492 17.4234 18.6703 17.6088 18.6067 17.9206C18.5747 18.0828 18.5466 18.2494 18.5187 18.4118C18.4682 18.7116 18.4173 19.0198 18.3292 19.3223C18.2504 19.5999 18.0423 19.9769 17.7265 20.148C16.0664 21.0377 14.6715 22.3498 13.3374 24.2768C11.7095 26.6359 10.5287 29.2573 9.5506 31.5309C7.44163 36.428 6.29694 40.6196 5.94766 44.7319C5.82658 46.1779 5.77815 48.0633 6.51862 49.8271C7.2401 51.5482 8.53249 52.2156 10.3592 51.807C12.2996 51.3738 13.8805 50.1955 15.3003 48.981C17.5296 47.0753 19.6254 44.6942 21.7058 41.7043C21.8567 41.4927 22.0631 41.2498 22.3813 41.2172C22.6954 41.1845 22.9453 41.3797 23.1497 41.5688C23.9667 42.3376 25.0039 42.7383 26.077 42.696C27.1542 42.6538 28.1631 42.1684 28.9207 41.3283C29.1704 41.0495 29.5422 40.7424 30.1831 40.862C32.3796 41.2492 34.2003 41.5575 35.914 41.8319C36.5392 41.9299 36.913 42.2478 37.1685 42.892C37.8041 44.4794 38.9556 45.3212 40.6834 45.462C41.3023 45.5135 41.9079 45.3884 42.7106 45.0451C42.8297 44.9915 42.9599 44.9677 43.0931 44.9733L43.1097 44.974L43.1095 44.9782Z" fill="white"/>
<path d="M30.9216 9.58515L30.4782 12.5522C30.3965 13.0984 30.7732 13.6074 31.3194 13.689L42.5942 15.3741L42.1507 18.3411L33.9419 17.1143C33.3957 17.0327 32.8867 17.4093 32.8051 17.9555L32.3617 20.9225L30.2847 20.6121C29.7385 20.5305 29.2295 20.9071 29.1479 21.4533L28.1132 28.3765C28.0316 28.9227 28.4082 29.4316 28.9544 29.5133L43.2952 31.6565C43.8414 31.7381 44.3504 31.3615 44.432 30.8153L44.8754 27.8483C44.9571 27.302 44.5804 26.7931 44.0342 26.7114L32.7594 25.0264L33.2029 22.0594L41.4117 23.2862C41.9579 23.3678 42.4669 22.9912 42.5485 22.445L42.9919 19.4779L45.0689 19.7883C45.6151 19.87 46.1241 19.4933 46.2057 18.9471L46.6491 15.9801C46.7308 15.4339 46.3541 14.9249 45.8079 14.8432L43.731 14.5328L44.1744 11.5658C44.2561 11.0196 43.8794 10.5106 43.3332 10.429L32.0584 8.74395C31.5122 8.66231 31.0032 9.03894 30.9216 9.58515Z" fill="white" stroke="url(#paint2_linear_13_23)"/>
<path d="M53.1811 58.0932C53.4089 58.0572 53.6301 57.9291 53.8523 57.6923C54.1033 57.4247 54.3289 57.0448 54.5285 56.5965C54.896 55.7711 55.1312 54.8186 55.297 54.1475C55.3117 54.088 55.3258 54.0307 55.3395 53.9759C57.1096 46.8493 57.0038 39.3853 55.0358 32.3142C54.6149 30.817 54.1091 29.393 53.1512 28.33C51.4358 26.4322 48.6411 25.9482 46.118 26.4406L53.1811 58.0932ZM53.1811 58.0932L53.1095 58.0973C52.921 58.1082 52.6875 58.0669 52.3943 57.9176C52.0272 57.7251 51.6977 57.4095 51.3759 57.0155C51.1516 56.7409 50.9524 56.4568 50.7488 56.1665C50.6534 56.0304 50.557 55.8929 50.4566 55.7544C49.6615 54.6571 49.0225 53.4407 48.4276 52.1832C47.3544 49.9061 46.6027 47.4862 45.9059 45.0318L45.9034 45.0227C45.799 44.655 45.6614 44.1701 45.3512 43.7686L45.3498 43.7668C44.6946 42.9266 43.5714 42.7929 42.7422 42.8088C42.7426 42.8088 42.7431 42.8088 42.7435 42.8088L53.1811 58.0932Z" fill="white" stroke="#A1BAE1"/>
<path d="M52.4124 31.883L51.3498 31.6865C51.0935 31.6378 50.8329 31.6896 50.6184 31.8314L49.7696 32.3783C49.5337 32.5318 49.369 32.7765 49.3196 33.0512C49.2702 33.326 49.3326 33.6182 49.502 33.8436L50.1003 34.6579C50.2539 34.8659 50.4769 35.0097 50.7333 35.0542L51.7959 35.2507C52.3457 35.3539 52.8784 34.9866 52.9815 34.433L53.232 33.0718C53.3351 32.5183 52.9705 31.9866 52.4165 31.8832L52.4124 31.883ZM44.4694 33.9009L45.5319 34.0974C45.784 34.146 46.0488 34.0944 46.2633 33.9525L47.1121 33.4057C47.348 33.2522 47.5128 33.0075 47.5621 32.7327C47.6115 32.4579 47.545 32.1656 47.3797 31.9404L46.7814 31.126C46.6278 30.9181 46.4007 30.7741 46.1484 30.7298L45.0858 30.5332C44.536 30.43 44.0034 30.7974 43.9002 31.3509L43.6497 32.7121C43.5466 33.2657 43.911 33.8015 44.4652 33.9007L44.4694 33.9009ZM48.8833 33.9849C48.7325 33.8107 48.5294 33.6887 48.3018 33.6496C48.0745 33.6063 47.8394 33.6466 47.6388 33.7555L46.8622 34.1753C46.73 34.2452 46.6129 34.3492 46.5201 34.4711C46.4315 34.5932 46.3711 34.7375 46.3438 34.8873L46.0884 36.2651C45.9853 36.8186 46.3497 37.3545 46.9039 37.4537L48.26 37.7047C48.8098 37.8079 49.3424 37.4406 49.4414 36.8868L49.6968 35.5091C49.7518 35.201 49.6693 34.8912 49.4669 34.656L48.8916 33.9853L48.8833 33.9849ZM50.5423 30.8926L50.7977 29.5149C50.9008 28.9613 50.5364 28.4255 49.9822 28.3263L48.6261 28.0752C48.0763 27.972 47.5436 28.3394 47.4447 28.8931L47.1893 30.2708C47.1343 30.579 47.2167 30.8887 47.4191 31.124L47.9944 31.7947C48.1532 31.9777 48.3567 32.0913 48.5759 32.13C48.7949 32.1729 49.0299 32.1368 49.2389 32.0241L50.0156 31.6043C50.148 31.5302 50.2648 31.4303 50.3576 31.3084C50.4462 31.1864 50.5066 31.0421 50.5339 30.8923L50.5423 30.8926Z" fill="#A1BAE1"/>
<path d="M8.82235 49.8016C9.52716 50.3688 10.6322 50.2566 11.4002 49.8448C12.7867 49.1028 13.8712 47.7312 14.9568 46.6239C16.6484 44.8965 18.2643 43.0903 19.8595 41.2791C20.2144 40.8789 20.5613 40.47 20.9122 40.0655C22.7104 37.9944 24.5862 41.3597 26.6703 40.6769C28.8347 39.9682 28.8959 37.6844 28.1381 35.9319C27.7969 35.1495 27.4172 34.3865 26.9951 33.6426C26.8557 33.3975 26.7674 33.1252 26.7378 32.8471C26.7083 32.5647 26.7373 32.2807 26.8239 32.0117C26.9105 31.7427 27.0505 31.4928 27.2347 31.2825C27.4188 31.0722 27.647 30.9016 27.9022 30.7824C28.3231 30.5907 28.7248 30.3604 29.103 30.0955C30.1218 29.3755 30.9448 28.2696 31.0237 27.0227C31.1525 25.0061 29.4009 23.3956 27.6653 22.3774C26.1126 21.4677 24.389 20.752 22.5969 20.755C20.592 20.7615 18.6644 21.6817 17.1406 22.9968C15.6167 24.3119 14.4521 25.9947 13.4309 27.734C11.5511 30.9218 10.0825 34.3369 9.05344 37.8967C8.18106 40.9177 6.32924 46.6407 8.55884 49.5344C8.63788 49.6343 8.7256 49.7261 8.82633 49.806L8.82235 49.8016Z" fill="white"/>
<path d="M8.46937 50.2157C9.16694 50.7574 10.0515 50.8288 10.8857 50.6212C11.6185 50.4428 12.2758 49.9885 12.8466 49.5095C13.4692 48.9907 14.0279 48.4063 14.5786 47.8131C15.1422 47.2121 15.7177 46.6243 16.2855 46.0234C17.5474 44.693 18.7733 43.3274 19.9871 41.9529C20.2895 41.6093 20.5919 41.2656 20.8903 40.9176C21.0309 40.7516 21.1756 40.5858 21.3201 40.4241C21.3682 40.3717 21.4122 40.319 21.4642 40.2709C21.4818 40.2507 21.5854 40.167 21.4774 40.2547C21.5163 40.2228 21.5552 40.1909 21.5941 40.159C21.633 40.1271 21.6887 40.0917 21.7401 40.0603C21.7616 40.0445 21.8122 40.0299 21.8256 40.0094C21.7643 40.0781 21.7448 40.0479 21.8211 40.0176C21.8679 39.9945 21.9186 39.9799 21.9694 39.9611C21.9862 39.9576 22.0374 39.9304 22.058 39.9355C21.9698 39.9527 21.9528 39.9604 22.0117 39.9461L22.0408 39.9473C22.0998 39.9331 22.1584 39.9272 22.2168 39.9255C22.2459 39.9268 22.2751 39.928 22.3044 39.9251C22.3879 39.9202 22.2416 39.9308 22.2503 39.9227C22.281 39.8863 22.5567 39.9694 22.6062 39.9799C22.6558 39.9904 22.8482 40.07 22.6766 39.9913C22.7258 40.0102 22.7793 40.0251 22.8285 40.044C22.9515 40.0912 23.0741 40.1468 23.1926 40.2022C23.4333 40.3216 23.6655 40.4448 23.8976 40.5722C24.3862 40.8364 24.8838 41.0885 25.424 41.2207C26.7063 41.5399 28.0751 40.8223 28.7035 39.6871C29.3181 38.5806 29.183 37.1736 28.7614 36.0312C28.4704 35.2426 28.0661 34.4743 27.6646 33.7355C27.6107 33.6326 27.5566 33.5337 27.4985 33.4306C27.4752 33.3918 27.4562 33.3491 27.4329 33.3103C27.3859 33.2412 27.4779 33.4255 27.4251 33.2974C27.3911 33.2162 27.3611 33.1394 27.3312 33.0584C27.324 33.0329 27.3126 33.0073 27.3054 32.9818C27.2982 32.9563 27.2911 32.9266 27.2837 32.9054C27.2974 32.9731 27.3012 32.9816 27.2913 32.9225C27.2821 32.8465 27.2728 32.7706 27.2676 32.6991C27.269 32.6656 27.2622 32.6317 27.2636 32.5982C27.2651 32.5647 27.2365 32.4544 27.2643 32.5815C27.2631 32.5143 27.2701 32.4475 27.2897 32.3812C27.2956 32.3395 27.3056 32.3022 27.3116 32.2605C27.3173 32.2229 27.3582 32.0485 27.3222 32.2064C27.3658 32.0656 27.4259 31.9297 27.5062 31.8073C27.5557 31.7213 27.5062 31.8073 27.493 31.8235C27.5152 31.7909 27.5375 31.7583 27.5639 31.7259C27.6169 31.6568 27.678 31.5923 27.7391 31.5278C27.761 31.5036 27.8343 31.4479 27.7393 31.5236C27.7695 31.4997 27.8041 31.4718 27.8343 31.448C27.8903 31.4042 27.9504 31.3648 28.0102 31.3296C28.0274 31.3178 28.1553 31.2519 28.0403 31.3099C28.0871 31.2868 28.1338 31.2678 28.1806 31.2446C28.304 31.187 28.4277 31.1209 28.5512 31.0591C29.2931 30.6713 29.9775 30.1678 30.514 29.5195C31.0285 28.8954 31.4241 28.132 31.5258 27.3225C31.6197 26.5965 31.5057 25.8574 31.2053 25.1901C30.6042 23.8638 29.4713 22.884 28.2666 22.1192C26.8389 21.2106 25.1999 20.465 23.508 20.271C21.9281 20.0859 20.351 20.417 18.9363 21.1367C17.4874 21.8761 16.2491 22.9474 15.2035 24.1906C14.1051 25.4987 13.208 26.9707 12.3809 28.4624C11.5218 30.0199 10.752 31.6315 10.0887 33.2854C9.45347 34.8693 8.90017 36.486 8.43332 38.1274C8.12004 39.2048 7.80676 40.2821 7.55117 41.3746C7.25941 42.6291 7.04216 43.8952 6.98226 45.1848C6.93159 46.3573 7.02055 47.5778 7.46092 48.6706C7.68698 49.2257 8.00673 49.8309 8.47751 50.2203C8.69472 50.4016 9.05337 50.396 9.2384 50.1647C9.42343 49.9335 9.41729 49.5934 9.18398 49.3989C8.99878 49.2483 8.84596 49.0236 8.69494 48.757C8.68337 48.7355 8.59294 48.61 8.60216 48.5894C8.59294 48.61 8.65588 48.6966 8.60994 48.6024C8.59855 48.5767 8.58299 48.5509 8.57178 48.521C8.51481 48.3927 8.45784 48.2644 8.40938 48.1323C8.36832 48.0214 8.33161 47.9066 8.29906 47.7919C8.277 47.7239 8.25927 47.6518 8.24137 47.5839L8.22365 47.5118C8.21696 47.4738 8.16071 47.3287 8.21298 47.4694C8.17663 47.3462 8.15294 47.2193 8.14191 47.0888C8.11894 46.9451 8.10014 46.8017 8.08549 46.6584C8.05602 46.3761 8.04336 46.0903 8.03903 45.8048C8.03704 45.6579 8.03922 45.5111 8.04139 45.3644C8.04429 45.2974 8.04718 45.2304 8.05008 45.1634C8.05135 45.1341 8.049 44.9955 8.0508 45.1466C8.05261 45.1047 8.05424 45.0671 8.05605 45.0252C8.09495 44.4143 8.16713 43.8049 8.27241 43.2011C8.48115 42.0353 8.74777 40.8804 9.07607 39.7449C9.2139 39.2558 9.35571 38.771 9.49752 38.2862C9.71783 37.5279 9.94103 36.799 10.1749 36.1126C11.2817 32.875 12.7513 29.7285 14.601 26.8499L14.6727 26.7355C14.7305 26.6499 14.6055 26.8417 14.6994 26.6947C14.753 26.6131 14.8108 26.5274 14.8685 26.446C14.9845 26.2706 15.1044 26.0995 15.2283 25.9328C15.4632 25.6072 15.7061 25.2904 15.9612 24.9824C16.2162 24.6745 16.479 24.3795 16.7581 24.0936C16.8975 23.9527 17.037 23.8118 17.1845 23.6755C17.2236 23.6394 17.2627 23.6033 17.3061 23.5632C17.2887 23.5793 17.2453 23.6194 17.3235 23.5472C17.4057 23.4752 17.4924 23.3992 17.5788 23.3274C17.8641 23.092 18.1571 22.8696 18.4662 22.6605C18.6034 22.5699 18.7407 22.4793 18.8818 22.3972C18.9588 22.3502 19.0359 22.3031 19.1169 22.2604L19.2236 22.2021C19.2236 22.2021 19.4155 22.1012 19.3175 22.1516C19.6371 21.989 19.9683 21.848 20.3029 21.7238C20.4638 21.6636 20.6244 21.6117 20.789 21.5642C20.8735 21.5385 20.9619 21.5171 21.0464 21.4914L21.1643 21.4628L21.2359 21.4449C21.177 21.4592 21.1811 21.4594 21.2401 21.4451C21.5892 21.3719 21.9453 21.3284 22.3005 21.3059C22.4884 21.2971 22.6801 21.297 22.8717 21.301C23.0632 21.305 22.8217 21.2988 22.9257 21.3033C22.9715 21.3052 23.0214 21.3074 23.0713 21.3095C23.1835 21.3185 23.2996 21.3319 23.4115 21.345C23.8342 21.4009 24.2556 21.4861 24.6629 21.6084L24.8029 21.6479C24.8029 21.6479 24.9798 21.7016 24.8852 21.6724C24.9756 21.7015 25.0659 21.7347 25.1561 21.7679C25.3737 21.8444 25.5866 21.9332 25.7953 22.0218C26.5193 22.3381 27.2197 22.7163 27.8848 23.1433C28.0065 23.2198 27.824 23.1029 27.901 23.1524L27.9942 23.2151C28.0631 23.26 28.1277 23.3089 28.1964 23.358C28.3378 23.4606 28.4751 23.5629 28.612 23.6737C28.8697 23.8819 29.1144 24.1021 29.3459 24.3386C29.3779 24.3693 29.4056 24.4041 29.4376 24.4348L29.4814 24.4828C29.4257 24.4217 29.521 24.5307 29.521 24.5307C29.5487 24.5654 29.5765 24.596 29.6042 24.6307C29.7031 24.7524 29.8017 24.8825 29.8917 25.0164C29.982 25.1461 30.0637 25.2797 30.137 25.4171C30.1487 25.4344 30.2099 25.5628 30.1525 25.4429L30.1867 25.5199C30.2249 25.6012 30.2629 25.6868 30.2925 25.7719C30.345 25.9084 30.3889 26.0488 30.4244 26.1929C30.4641 26.3331 30.4041 26.083 30.4316 26.2184C30.4386 26.2481 30.4417 26.2734 30.4488 26.3031C30.4654 26.4003 30.4779 26.4973 30.486 26.5983C30.4911 26.6741 30.4965 26.7414 30.4976 26.8128C30.496 26.8505 30.4867 27.064 30.4969 26.926C30.4799 27.1267 30.4504 27.3268 30.4003 27.5218C30.3947 27.5551 30.3807 27.5881 30.3753 27.6172C30.3351 27.775 30.4129 27.5182 30.3605 27.6712C30.3321 27.7497 30.3037 27.8282 30.2711 27.9065C30.1881 28.0917 30.0969 28.2724 29.9895 28.444C29.9043 28.583 30.0514 28.3628 29.9539 28.497C29.936 28.5256 29.9139 28.5541 29.8962 28.5785C29.843 28.6517 29.7855 28.729 29.724 28.8018C29.6008 28.9518 29.4653 29.097 29.3261 29.2337C29.2912 29.27 29.2521 29.3061 29.2132 29.338C29.2783 29.2778 29.2132 29.338 29.2004 29.3458C29.1226 29.4096 29.0447 29.4776 28.9629 29.537C28.8077 29.6562 28.6446 29.7667 28.4775 29.8728C28.3919 29.9237 28.302 29.9786 28.2165 30.0295L28.0969 30.0957C28.0969 30.0957 27.9392 30.1771 28.0244 30.1345C27.8325 30.2354 27.6373 30.3152 27.4492 30.4246C27.1412 30.6086 26.8764 30.8532 26.6722 31.1423C26.4637 31.4354 26.3203 31.7649 26.251 32.1144C26.1826 32.4429 26.1806 32.7784 26.2415 33.1041C26.324 33.5104 26.5011 33.8494 26.7022 34.2104C27.0935 34.8942 27.4337 35.6052 27.7271 36.3393C27.7797 36.4717 27.8238 36.6078 27.8678 36.7481C27.8859 36.8118 27.9039 36.8755 27.922 36.9392C27.9329 36.9775 27.9396 37.0155 27.9504 37.0537C27.9786 37.1724 27.9336 36.9607 27.9539 37.0707C28.0124 37.3543 28.0416 37.645 28.0499 37.9348C28.0595 38.0023 28.0605 38.0737 28.0491 38.1445C28.0862 38.058 28.0526 38.065 28.0497 38.132C28.0443 38.1611 28.047 38.1948 28.0457 38.2241C28.031 38.3703 28.0081 38.5162 27.9726 38.6615C27.9618 38.7198 27.9426 38.7777 27.9274 38.84C27.9742 38.7203 27.8929 38.9643 27.9274 38.84C27.9182 38.8605 27.9129 38.8855 27.9035 38.9103C27.8518 39.0465 27.7878 39.178 27.7158 39.3008C27.7113 39.309 27.6443 39.411 27.6977 39.3336C27.7469 39.256 27.68 39.358 27.6754 39.3662C27.64 39.415 27.6004 39.4637 27.5608 39.5123C27.5125 39.569 27.46 39.6255 27.4078 39.6778C27.3902 39.698 27.3729 39.714 27.3555 39.7301C27.4752 39.6597 27.3427 39.7379 27.3124 39.7618C27.196 39.8533 27.0717 39.9319 26.9476 40.0063C26.9263 40.018 26.8583 40.0486 26.9603 40.0026C26.922 40.022 26.8795 40.0411 26.8455 40.0565C26.7646 40.095 26.68 40.1249 26.5951 40.159C26.5317 40.1815 26.4683 40.1997 26.4092 40.2182C26.5309 40.1982 26.2951 40.2553 26.4092 40.2182C26.3756 40.2251 26.3421 40.2279 26.3085 40.2349C26.254 40.2409 26.1996 40.247 26.1453 40.2489C26.112 40.2474 26.0786 40.2502 26.0453 40.2488C25.9746 40.2457 25.9551 40.2155 26.0578 40.2493C25.9509 40.2154 25.8131 40.222 25.7017 40.1963C25.648 40.1856 25.5944 40.1707 25.5409 40.1559C25.5082 40.1419 25.4792 40.1364 25.4463 40.1266C25.5872 40.1453 25.4997 40.1457 25.4546 40.127C24.9621 39.9507 24.5071 39.6795 24.0466 39.4374C23.5984 39.2001 23.1168 38.9655 22.6117 38.8894C22.3302 38.8438 22.0463 38.8568 21.7683 38.9246C21.4945 38.9926 21.2349 39.1157 21.0027 39.282C20.6969 39.5122 20.4592 39.8041 20.2134 40.0915C19.9238 40.4273 19.6299 40.7671 19.332 41.1026C18.7361 41.7777 18.1405 42.4445 17.5407 43.111C16.9455 43.7694 16.3463 44.4234 15.7391 45.0687C15.1713 45.6695 14.5875 46.257 14.0196 46.862C13.7617 47.1405 13.5038 47.4189 13.2377 47.6928C13.1154 47.8218 12.9892 47.9465 12.8628 48.0753C12.7975 48.1397 12.728 48.2038 12.6625 48.2723C12.6322 48.3004 12.6018 48.3285 12.5754 48.3609C12.549 48.3933 12.5274 48.4092 12.5016 48.4291C12.5406 48.393 12.5363 48.397 12.4929 48.4371C12.2198 48.6813 11.9308 48.9081 11.6258 49.1174C11.4799 49.216 11.3343 49.3063 11.1849 49.388C11.1592 49.4037 11.0613 49.4498 11.1635 49.3997C11.121 49.4188 11.0827 49.4382 11.0402 49.4573C10.9552 49.4956 10.8664 49.5254 10.7776 49.5552C10.7014 49.5813 10.6215 49.5988 10.5455 49.6207C10.6634 49.5922 10.5077 49.6275 10.4952 49.627C10.4489 49.6376 10.4028 49.644 10.3525 49.6503C10.2729 49.6594 10.1934 49.6686 10.1141 49.6694C10.0684 49.6675 10.0183 49.6695 9.96819 49.6716C9.94323 49.6705 9.86872 49.6589 9.96819 49.6716C9.88536 49.6596 9.798 49.6559 9.71119 49.6396L9.59562 49.6137C9.57482 49.6128 9.43139 49.5563 9.5542 49.6077C9.48041 49.5794 9.41078 49.5512 9.34151 49.5147C9.30063 49.4962 9.26012 49.4692 9.21943 49.4465C9.32487 49.514 9.19935 49.4289 9.18326 49.4156C8.96152 49.2425 8.61173 49.2359 8.42236 49.4712C8.24674 49.6776 8.2395 50.0381 8.47733 50.2245L8.46937 50.2157Z" fill="#A1BAE1"/>
<path d="M23.0936 23.0601C23.6973 23.1698 24.097 23.7575 23.9832 24.3652L22.6606 31.5372C22.5468 32.1448 21.9667 32.5479 21.363 32.4382C20.7593 32.3284 20.3596 31.7408 20.4734 31.1331L21.796 23.9611C21.9098 23.3534 22.4899 22.9503 23.0936 23.0601Z" fill="#A1BAE1"/>
<path d="M17.5722 26.8849C17.686 26.2773 18.2661 25.8742 18.8696 25.9881L26.0015 27.3086C26.6052 27.4183 27.0049 28.006 26.8911 28.6136C26.7774 29.2213 26.1973 29.6244 25.5938 29.5105L18.4619 28.19C17.8582 28.0802 17.4585 27.4926 17.5722 26.8849Z" fill="#A1BAE1"/>
<rect x="12.5" y="10.5" width="43" height="43" rx="9.5" stroke="url(#paint3_linear_13_23)" stroke-opacity="0.7"/>
<defs>
<filter id="filter0_b_13_23" x="1.45547" y="12.4969" width="61.9433" height="51.6434" filterUnits="userSpaceOnUse" color-interpolation-filters="sRGB">
<feFlood flood-opacity="0" result="BackgroundImageFix"/>
<feGaussianBlur in="BackgroundImageFix" stdDeviation="2"/>
<feComposite in2="SourceAlpha" operator="in" result="effect1_backgroundBlur_13_23"/>
<feBlend mode="normal" in="SourceGraphic" in2="effect1_backgroundBlur_13_23" result="shape"/>
</filter>
<linearGradient id="paint0_linear_13_23" x1="19" y1="23.5" x2="78.5" y2="88.5" gradientUnits="userSpaceOnUse">
<stop stop-color="#9DC4EF"/>
<stop offset="1" stop-color="#4A83DC"/>
</linearGradient>
<linearGradient id="paint1_linear_13_23" x1="38.5" y1="50" x2="23" y2="39" gradientUnits="userSpaceOnUse">
<stop stop-color="#13438C"/>
<stop offset="1" stop-color="#4A83DC" stop-opacity="0"/>
</linearGradient>
<linearGradient id="paint2_linear_13_23" x1="55.2723" y1="5.31789" x2="36.9796" y2="28.0476" gradientUnits="userSpaceOnUse">
<stop stop-color="#5D89CE"/>
<stop offset="1" stop-color="#A3C3ED"/>
</linearGradient>
<linearGradient id="paint3_linear_13_23" x1="12.2973" y1="10" x2="24.4977" y2="14.8852" gradientUnits="userSpaceOnUse">
<stop stop-color="white"/>
<stop offset="1" stop-color="white" stop-opacity="0"/>
</linearGradient>
</defs>
</svg>
